<svg width="345" height="232" viewBox="0 0 345 232" fill="none" xmlns="http://www.w3.org/2000/svg">
  <path
		d="M131.216 96.2C131.216 109.933 125.083 121 112.816 129.4C100.55 137.8 84.8831 142 65.8164 142C54.4831 142 44.3497 140.6 35.4164 137.8C26.6164 135 19.8164 131.4 15.0164 127C5.54974 118.333 0.816406 109.467 0.816406 100.4C0.816406 99.2 1.21641 98.2 2.01641 97.4C2.94974 96.4667 4.01641 96 5.21641 96H45.4164C47.8164 96 50.2164 97.2 52.6164 99.6C55.0164 102 59.2831 103.2 65.4164 103.2C74.6164 103.2 79.2164 99.6667 79.2164 92.6C79.2164 86.7333 74.5497 83.8 65.2164 83.8H41.0164C39.5497 83.8 38.2831 83.2667 37.2164 82.2C36.1497 81.1333 35.6164 79.8667 35.6164 78.4V62.2C35.6164 58.4667 36.9497 55.8 39.6164 54.2L67.4164 39H14.8164C13.3497 39 12.0831 38.4667 11.0164 37.4C9.94974 36.3333 9.41641 35.0667 9.41641 33.6V5.4C9.41641 3.93334 9.94974 2.66667 11.0164 1.6C12.0831 0.533334 13.3497 0 14.8164 0H117.216C118.683 0 119.95 0.533334 121.016 1.6C122.083 2.66667 122.616 3.93334 122.616 5.4V30.8C122.616 34.2667 121.283 36.9333 118.616 38.8L95.2164 54.8C119.216 60.8 131.216 74.6 131.216 96.2Z"
		fill="#D9D9D9"
	/>
  <path d="M345 204.44H45V204.59H345V204.44Z" fill="#EBEBEB" />
  <path d="M314.94 214.094H295.068V214.244H314.94V214.094Z" fill="#EBEBEB" />
  <path d="M206.916 212.264H188.784V212.414H206.916V212.264Z" fill="#EBEBEB" />
  <path d="M294.468 208.526H252.534V208.676H294.468V208.526Z" fill="#EBEBEB" />
  <path d="M176.76 209.534H76.476V209.684H176.76V209.534Z" fill="#EBEBEB" />
  <path d="M185.898 209.534H182.1V209.684H185.898V209.534Z" fill="#EBEBEB" />
  <path
		d="M187.2 177.68H71.346C70.4384 177.678 69.5685 177.317 68.9273 176.674C68.2861 176.032 67.926 175.162 67.926 174.254V11.396C67.9339 10.4936 68.2975 9.6308 68.9379 8.99494C69.5782 8.35909 70.4436 8.00156 71.346 8.00001H187.2C188.109 8.00001 188.98 8.36096 189.623 9.00346C190.265 9.64596 190.626 10.5174 190.626 11.426V174.254C190.626 175.163 190.265 176.034 189.623 176.677C188.98 177.319 188.109 177.68 187.2 177.68ZM71.346 8.12001C70.4782 8.1216 69.6465 8.46745 69.0334 9.08165C68.4203 9.69584 68.076 10.5282 68.076 11.396V174.254C68.076 175.122 68.4203 175.954 69.0334 176.568C69.6465 177.183 70.4782 177.528 71.346 177.53H187.2C188.068 177.528 188.901 177.183 189.515 176.569C190.129 175.955 190.474 175.122 190.476 174.254V11.396C190.474 10.5276 190.129 9.69531 189.515 9.08128C188.901 8.46725 188.068 8.1216 187.2 8.12001H71.346Z"
		fill="#EBEBEB"
	/>
  <path
		d="M316.986 177.68H201.126C200.218 177.678 199.347 177.317 198.705 176.675C198.063 176.033 197.702 175.162 197.7 174.254V11.396C197.709 10.4931 198.074 9.63026 198.716 8.99457C199.357 8.35887 200.223 8.00154 201.126 8.00001H316.986C317.887 8.00313 318.751 8.36136 319.39 8.99705C320.029 9.63273 320.392 10.4947 320.4 11.396V174.254C320.4 175.161 320.041 176.03 319.401 176.672C318.761 177.314 317.893 177.677 316.986 177.68ZM201.126 8.12001C200.258 8.1216 199.425 8.46725 198.811 9.08128C198.197 9.69531 197.852 10.5276 197.85 11.396V174.254C197.852 175.122 198.197 175.955 198.811 176.569C199.425 177.183 200.258 177.528 201.126 177.53H316.986C317.854 177.528 318.687 177.183 319.301 176.569C319.915 175.955 320.26 175.122 320.262 174.254V11.396C320.26 10.5276 319.915 9.69531 319.301 9.08128C318.687 8.46725 317.854 8.1216 316.986 8.12001H201.126Z"
		fill="#EBEBEB"
	/>
  <path
		d="M278.232 68.426H313.464C312.924 67.6942 312.222 67.097 311.414 66.6807C310.605 66.2644 309.711 66.0404 308.802 66.026C305.748 66.026 308.61 67.352 306.24 67.352C303.87 67.352 301.44 63.062 293.898 63.062C286.356 63.062 292.602 66.284 288.702 66.284C284.802 66.284 272.328 63.446 278.232 68.426Z"
		fill="#F0F0F0"
	/>
  <path
		d="M211.248 32.876H258.846C258.114 31.8909 257.165 31.0874 256.072 30.5277C254.98 29.968 253.773 29.667 252.546 29.648C248.418 29.648 252.288 31.448 249.084 31.448C245.88 31.448 242.58 25.658 232.41 25.658C222.24 25.658 230.658 30.014 225.39 30.014C220.122 30.014 203.268 26.144 211.248 32.876Z"
		fill="#F5F5F5"
	/>
  <path
		d="M173.91 37.088C170.244 37.088 173.682 38.672 170.844 38.672C168.006 38.672 165.066 33.53 156.036 33.53C147.156 33.53 153.858 37.904 149.646 38.054H149.4C145.2 38.054 140.838 30.434 127.452 30.434C114.066 30.434 125.142 36.164 118.212 36.164C111.282 36.164 89.094 31.094 99.612 39.95H179.508C178.857 39.0754 178.014 38.3623 177.043 37.866C176.072 37.3697 175 37.1035 173.91 37.088Z"
		fill="#F0F0F0"
	/>
  <path
		d="M105.096 19.688C105.566 19.8389 106.019 20.0401 106.446 20.288C106.879 20.546 107.282 20.8519 107.646 21.2C107.912 21.4664 108.157 21.7533 108.378 22.058C108.758 21.9848 109.143 21.9407 109.53 21.926C110.043 21.909 110.557 21.9533 111.06 22.058C111.543 22.1611 112.014 22.316 112.464 22.52C112.892 22.7218 113.295 22.9735 113.664 23.27C113.233 23.0724 112.78 22.9293 112.314 22.844C111.852 22.7552 111.381 22.717 110.91 22.73C109.973 22.7576 109.055 22.9955 108.222 23.426L107.622 23.726L107.424 23.126C107.132 22.2611 106.636 21.4791 105.978 20.846C105.666 20.5268 105.32 20.2431 104.946 20C104.545 19.7471 104.113 19.5455 103.662 19.4C104.15 19.439 104.631 19.5356 105.096 19.688Z"
		fill="#E0E0E0"
	/>
  <path
		d="M87.51 20.234C87.86 20.4146 88.1898 20.6319 88.494 20.882C88.8049 21.143 89.0848 21.439 89.328 21.764C89.507 22.0074 89.6637 22.2664 89.796 22.538C90.1048 22.5297 90.4137 22.5458 90.72 22.586C91.1306 22.6439 91.5332 22.7486 91.92 22.898C92.2879 23.0442 92.6381 23.2314 92.964 23.456C93.2808 23.666 93.5692 23.9161 93.822 24.2C93.5089 23.985 93.1703 23.8096 92.814 23.678C92.4627 23.5482 92.0987 23.4557 91.728 23.402C90.9899 23.293 90.2366 23.3546 89.526 23.582L89.04 23.738L88.956 23.246C88.8379 22.5256 88.5477 21.8443 88.11 21.26C87.8916 20.9605 87.6378 20.6885 87.354 20.45C87.0642 20.2018 86.7435 19.9921 86.4 19.826C86.7849 19.9174 87.1575 20.0544 87.51 20.234Z"
		fill="#E0E0E0"
	/>
  <path
		d="M277.572 14.6C278.068 14.7478 278.547 14.9489 279 15.2C279.458 15.4511 279.883 15.7574 280.266 16.112C280.55 16.3756 280.809 16.6648 281.04 16.976C281.435 16.8851 281.836 16.8269 282.24 16.802C282.768 16.7732 283.297 16.8054 283.818 16.898C284.319 16.9902 284.808 17.137 285.276 17.336C285.735 17.5271 286.169 17.775 286.566 18.074C286.116 17.8838 285.645 17.7489 285.162 17.672C284.684 17.5952 284.199 17.5691 283.716 17.594C282.75 17.6467 281.808 17.9175 280.962 18.386L280.362 18.71L280.14 18.11C279.814 17.2255 279.279 16.4329 278.58 15.8C278.228 15.4783 277.842 15.1965 277.428 14.96C277.008 14.7161 276.558 14.5266 276.09 14.396C276.591 14.4012 277.089 14.4697 277.572 14.6Z"
		fill="#E0E0E0"
	/>
  <path
		d="M278.73 30.38C279.054 30.4752 279.368 30.6039 279.666 30.764C279.971 30.9297 280.255 31.1311 280.512 31.364C280.705 31.5463 280.88 31.7472 281.034 31.964C281.294 31.903 281.559 31.8648 281.826 31.85C282.181 31.8274 282.538 31.8475 282.888 31.91C283.221 31.9734 283.547 32.0719 283.86 32.204C284.169 32.3305 284.46 32.498 284.724 32.702C284.429 32.5708 284.118 32.4761 283.8 32.42C282.835 32.2566 281.844 32.4236 280.986 32.894L280.596 33.11L280.446 32.708C280.232 32.1164 279.878 31.5854 279.414 31.16C279.178 30.9454 278.918 30.7583 278.64 30.602C278.36 30.4365 278.059 30.3075 277.746 30.218C278.079 30.2343 278.409 30.2886 278.73 30.38Z"
		fill="#E0E0E0"
	/>
  <path
		d="M293.964 27.842C294.195 27.9091 294.418 27.9995 294.63 28.112C294.847 28.2302 295.049 28.3754 295.23 28.544C295.368 28.6668 295.492 28.8036 295.602 28.952C295.786 28.9095 295.972 28.8814 296.16 28.868C296.411 28.8565 296.663 28.8726 296.91 28.916C297.147 28.9586 297.379 29.0291 297.6 29.126C297.815 29.2139 298.017 29.331 298.2 29.474C297.99 29.381 297.768 29.3164 297.54 29.282C297.314 29.2461 297.085 29.234 296.856 29.246C296.4 29.271 295.955 29.3981 295.554 29.618L295.278 29.768L295.17 29.486C294.934 28.8539 294.481 28.3264 293.892 27.998C293.695 27.8802 293.483 27.7894 293.262 27.728C293.5 27.7356 293.736 27.774 293.964 27.842Z"
		fill="#E0E0E0"
	/>
  <path
		d="M266.82 39.05C267.157 39.1465 267.483 39.2793 267.792 39.446C268.106 39.6122 268.4 39.8135 268.668 40.046C268.866 40.2286 269.047 40.4295 269.208 40.646C269.479 40.5859 269.753 40.5458 270.03 40.526C270.398 40.5073 270.766 40.5315 271.128 40.598C271.475 40.6569 271.813 40.7576 272.136 40.898C272.454 41.0307 272.754 41.202 273.03 41.408C272.718 41.2779 272.392 41.1852 272.058 41.132C271.727 41.0782 271.391 41.06 271.056 41.078C270.386 41.1147 269.734 41.3035 269.148 41.63L268.74 41.846L268.59 41.432C268.365 40.82 267.997 40.2707 267.516 39.83C267.275 39.5993 267.007 39.3979 266.718 39.23C266.425 39.0605 266.113 38.9275 265.788 38.834C266.139 38.8665 266.485 38.939 266.82 39.05Z"
		fill="#E0E0E0"
	/>
  <path
		d="M269.322 55.85C269.549 55.9124 269.769 56.001 269.976 56.114C270.191 56.2307 270.393 56.3716 270.576 56.534C270.705 56.6595 270.825 56.7938 270.936 56.936C271.115 56.8924 271.298 56.8663 271.482 56.858C271.727 56.8415 271.973 56.8556 272.214 56.9C272.447 56.9417 272.675 57.0101 272.892 57.104C273.106 57.1917 273.308 57.3066 273.492 57.446C273.282 57.3577 273.063 57.2952 272.838 57.26C272.616 57.224 272.391 57.2119 272.166 57.224C271.72 57.2486 271.285 57.3737 270.894 57.59L270.624 57.74L270.516 57.458C270.369 57.0491 270.124 56.6824 269.802 56.39C269.64 56.2396 269.461 56.1087 269.268 56C269.079 55.8894 268.877 55.8008 268.668 55.736C268.89 55.7471 269.109 55.7854 269.322 55.85Z"
		fill="#E0E0E0"
	/>
  <path
		d="M288.81 50.948C288.97 50.9933 289.125 51.0557 289.272 51.134C289.42 51.219 289.559 51.3196 289.686 51.434C289.778 51.5209 289.862 51.6152 289.938 51.716C290.066 51.6867 290.197 51.6686 290.328 51.662C290.499 51.6406 290.673 51.6406 290.844 51.662C291.009 51.6908 291.17 51.7392 291.324 51.806C291.474 51.8705 291.617 51.951 291.75 52.046C291.454 51.9233 291.134 51.8699 290.814 51.89C290.497 51.9083 290.187 51.9964 289.908 52.148L289.716 52.256L289.644 52.058C289.54 51.7687 289.367 51.5091 289.14 51.302C289.026 51.1948 288.899 51.1021 288.762 51.026C288.624 50.9457 288.477 50.8833 288.324 50.84C288.489 50.8582 288.652 50.8944 288.81 50.948Z"
		fill="#E0E0E0"
	/>
  <path d="M149.868 102.458L96.882 105.494L87.36 78.182L140.346 75.14L149.868 102.458Z" fill="#F5F5F5" />
  <path d="M240.132 102.458L293.118 105.494L302.64 78.182L249.654 75.14L240.132 102.458Z" fill="#F5F5F5" />
  <path
		d="M335.166 204.44H54.834L78.834 105.728C78.834 97.082 311.166 97.082 311.166 105.728L335.166 204.44Z"
		fill="#E6E6E6"
	/>
  <path
		d="M330 186.2C240.538 200.118 149.462 200.118 60 186.2C59.6827 186.15 59.3783 186.039 59.1043 185.871C58.8302 185.704 58.5919 185.484 58.403 185.224C58.214 184.964 58.0782 184.67 58.0032 184.358C57.9282 184.045 57.9156 183.721 57.966 183.404C58.258 181.528 58.556 179.648 58.86 177.764C58.9059 177.447 59.0147 177.143 59.1801 176.868C59.3454 176.594 59.564 176.356 59.8229 176.168C60.0817 175.979 60.3757 175.844 60.6874 175.771C60.9992 175.698 61.3224 175.688 61.638 175.742C150.003 189.482 239.961 189.482 328.326 175.742C328.642 175.688 328.965 175.698 329.277 175.771C329.588 175.844 329.882 175.979 330.141 176.168C330.4 176.356 330.619 176.594 330.784 176.868C330.949 177.143 331.058 177.447 331.104 177.764C331.404 179.642 331.704 181.526 331.998 183.404C332.101 184.039 331.948 184.689 331.574 185.213C331.2 185.736 330.634 186.091 330 186.2Z"
		fill="#F5F5F5"
	/>
  <path
		d="M320.454 150.2C237.316 163.112 152.684 163.112 69.546 150.2C69.2287 150.15 68.9243 150.039 68.6503 149.871C68.3762 149.704 68.1379 149.484 67.949 149.224C67.76 148.964 67.6242 148.67 67.5492 148.358C67.4742 148.045 67.4616 147.721 67.512 147.404C67.776 145.764 68.036 144.126 68.292 142.49C68.3417 142.174 68.4531 141.871 68.62 141.599C68.7869 141.326 69.0059 141.089 69.2645 140.901C69.5231 140.714 69.8162 140.579 70.1271 140.504C70.4379 140.43 70.7604 140.418 71.076 140.468C153.2 153.218 236.8 153.218 318.924 140.468C319.24 140.418 319.562 140.43 319.873 140.504C320.184 140.579 320.477 140.714 320.736 140.901C320.994 141.089 321.213 141.326 321.38 141.599C321.547 141.871 321.658 142.174 321.708 142.49C321.968 144.126 322.228 145.764 322.488 147.404C322.538 147.721 322.526 148.045 322.451 148.358C322.376 148.67 322.24 148.964 322.051 149.224C321.862 149.484 321.624 149.704 321.35 149.871C321.076 150.039 320.771 150.15 320.454 150.2Z"
		fill="#F5F5F5"
	/>
  <path
		d="M312.48 114.2C234.626 126.278 155.374 126.278 77.52 114.2C77.2023 114.151 76.8975 114.04 76.6231 113.873C76.3486 113.705 76.11 113.485 75.9209 113.225C75.7319 112.966 75.5961 112.671 75.5215 112.358C75.4468 112.046 75.4348 111.721 75.486 111.404C75.706 109.964 75.932 108.528 76.164 107.096C76.2659 106.459 76.6159 105.888 77.1376 105.508C77.6592 105.128 78.3101 104.97 78.948 105.068C155.856 117.002 234.144 117.002 311.052 105.068C311.69 104.97 312.341 105.128 312.862 105.508C313.384 105.888 313.734 106.459 313.836 107.096C314.064 108.532 314.29 109.968 314.514 111.404C314.565 111.721 314.553 112.046 314.479 112.358C314.404 112.671 314.268 112.966 314.079 113.225C313.89 113.485 313.651 113.705 313.377 113.873C313.102 114.04 312.798 114.151 312.48 114.2Z"
		fill="#F5F5F5"
	/>
  <path
		d="M195 231.536C259.249 231.536 311.334 228.495 311.334 224.744C311.334 220.993 259.249 217.952 195 217.952C130.75 217.952 78.666 220.993 78.666 224.744C78.666 228.495 130.75 231.536 195 231.536Z"
		fill="#F5F5F5"
	/>
  <path
		d="M181.044 158.732C163.914 135.2 152.172 107.504 151.362 99.128L180.072 106.082C180.072 106.082 189.528 135.104 194.604 151.766C199.89 169.088 177.126 215.792 177.126 215.792L170.172 215.072C176.964 188.84 173.94 169.874 181.044 158.732Z"
		fill="#7F3E3B"
	/>
  <path
		d="M170.31 212.738C171.42 208.058 174.21 191.666 175.476 181.364C184.692 180.488 190.476 182.594 190.476 182.594C190.476 184.118 182.886 205.466 178.146 218.126L170.31 212.738Z"
		fill="#5293C7"
	/>
  <path
		d="M175.476 181.364C175.344 182.45 175.194 183.602 175.026 184.808C179.895 184.585 184.772 184.968 189.546 185.948C189.943 184.856 190.252 183.735 190.47 182.594C190.47 182.594 184.692 180.488 175.476 181.364Z"
		fill="#263238"
	/>
  <path
		d="M178.566 103.892C178.566 103.892 180.768 105.416 180.966 106.52C182.832 108.272 187.002 119.72 187.524 125.048C188.046 130.376 191.61 132.65 190.482 138.53C187.104 136.472 171.654 144.626 171.654 144.626C167.322 141.998 166.626 136.046 163.854 132.122C160.908 127.958 157.746 119.522 156.252 114.59C154.674 109.4 153.984 105.8 153.984 105.8L178.566 103.892Z"
		fill="#263238"
	/>
  <path
		d="M164.238 113.054C162.264 109.622 157.29 109.094 155.376 111.566C155.628 112.494 155.92 113.494 156.252 114.566C157.752 119.48 160.908 127.94 163.854 132.11C164.022 132.344 164.184 132.59 164.34 132.842C167.076 127.334 167.49 118.718 164.238 113.054Z"
		fill="black"
	/>
  <path
		d="M191.208 220.85C185.418 218.84 181.986 217.43 180.492 213.98C180.492 213.98 182.022 214.25 180.888 212.33C179.754 210.41 176.412 209.138 175.488 211.784C175.488 211.784 171.612 209.984 169.632 211.634L167.232 219.65C167.195 219.805 167.189 219.966 167.214 220.123C167.24 220.28 167.296 220.431 167.381 220.566C167.465 220.701 167.575 220.818 167.705 220.91C167.835 221.002 167.982 221.067 168.138 221.102C171.708 221.792 173.856 221.606 177.312 222.224C181.362 222.944 184.104 223.868 188.922 224.024C191.844 224.096 192.408 221.27 191.208 220.85Z"
		fill="#263238"
	/>
  <path d="M176.112 223.04L174.906 222.806L174.354 221L177.3 221.576L176.112 223.04Z" fill="#263238" />
  <path d="M179.256 223.556L178.056 223.322L177.498 221.516L180.45 222.092L179.256 223.556Z" fill="#263238" />
  <path d="M182.838 224.222L181.62 224.126L180.864 222.392L183.864 222.632L182.838 224.222Z" fill="#263238" />
  <path d="M186.24 224.588L185.016 224.534L184.2 222.83L187.206 222.962L186.24 224.588Z" fill="#263238" />
  <path d="M189.606 224.738L188.382 224.684L187.572 222.98L190.572 223.112L189.606 224.738Z" fill="#263238" />
  <path d="M169.422 222.116L168.216 221.882L167.658 220.076L170.61 220.652L169.422 222.116Z" fill="#263238" />
  <path d="M172.746 222.668L171.546 222.434L170.988 220.622L173.94 221.198L172.746 222.668Z" fill="#263238" />
  <path
		d="M194.184 58.07C195.384 58.766 196.584 59.516 197.784 60.272C198.984 61.028 200.154 61.79 201.312 62.582L203.058 63.782L204.78 64.982L208.11 67.292L205.518 66.656C206.916 66.656 208.326 66.746 209.748 66.656C211.17 66.566 212.604 66.524 214.044 66.368C215.484 66.212 216.924 66.02 218.376 65.768C219.096 65.642 219.822 65.51 220.542 65.366L222.606 64.928L223.008 64.844C223.635 64.7124 224.289 64.8009 224.859 65.0945C225.428 65.388 225.88 65.8688 226.137 66.456C226.394 67.0432 226.441 67.7009 226.27 68.3187C226.099 68.9364 225.72 69.4765 225.198 69.848L224.598 70.268L224.052 70.646C223.68 70.892 223.32 71.114 222.948 71.342C222.204 71.78 221.454 72.2 220.686 72.578C219.15 73.3491 217.564 74.0185 215.94 74.582C214.307 75.1463 212.639 75.6072 210.948 75.962C209.239 76.3271 207.51 76.5895 205.77 76.748C205.082 76.81 204.391 76.6878 203.766 76.394L203.166 76.106C201.732 75.422 200.472 74.792 199.194 74.096C197.916 73.4 196.674 72.74 195.438 72.032C194.202 71.324 192.978 70.598 191.76 69.86C190.542 69.122 189.36 68.36 188.16 67.55C186.972 66.7268 186.148 65.4775 185.857 64.0618C185.567 62.6462 185.834 61.1731 186.602 59.9491C187.37 58.725 188.581 57.8442 189.982 57.4897C191.383 57.1353 192.866 57.3345 194.124 58.046L194.184 58.07Z"
		fill="#7F3E3B"
	/>
  <path
		d="M188.544 52.766C193.902 54.638 200.736 61.28 202.794 62.72C205.53 64.628 205.002 69.398 203.574 71.462C202.458 73.082 200.478 74.81 197.67 74.168C194.862 73.526 190.71 71.168 190.71 71.168C190.71 71.168 182.016 50.132 188.544 52.766Z"
		fill="#5293C7"
	/>
  <path
		d="M188.544 52.766C193.902 54.638 200.736 61.28 202.794 62.72C205.53 64.628 205.002 69.398 203.574 71.462C202.458 73.082 200.478 74.81 197.67 74.168C194.862 73.526 190.71 71.168 190.71 71.168C190.71 71.168 182.016 50.132 188.544 52.766Z"
		fill="black"
	/>
  <path
		d="M221.196 65.522L226.8 63.2L227.616 70.4C227.616 70.4 222.282 71.906 221.016 69.2L221.196 65.522Z"
		fill="#7F3E3B"
	/>
  <path
		d="M232.662 65.528L232.518 68.114C232.491 68.6133 232.287 69.0866 231.943 69.4493C231.599 69.8121 231.137 70.0406 230.64 70.094L227.64 70.424L226.8 63.2L230.622 63.326C230.901 63.3345 231.176 63.3984 231.43 63.5141C231.685 63.6297 231.913 63.7949 232.103 63.9998C232.293 64.2047 232.44 64.4454 232.536 64.7077C232.632 64.9701 232.675 65.249 232.662 65.528Z"
		fill="#7F3E3B"
	/>
  <path
		d="M116.466 126.146C113.298 122.51 109.986 123.632 108.498 125.468C106.206 128.282 105.882 129.488 104.052 132.488C101.91 135.998 99.18 137.324 99.156 142.148C99.156 144.176 102.156 147.23 104.334 144.5C106.489 141.813 109.121 139.547 112.098 137.816C114.324 137.666 117.408 136.964 115.47 134.936C115.47 134.936 118.566 128.6 116.466 126.146Z"
		fill="#263238"
	/>
  <path d="M108.354 125.03L109.296 124.244L111.048 124.952L108.738 126.878L108.354 125.03Z" fill="#263238" />
  <path d="M106.512 127.568L107.238 126.578L109.11 126.842L107.334 129.272L106.512 127.568Z" fill="#263238" />
  <path d="M104.874 130.118L105.516 129.074L107.4 129.176L105.84 131.75L104.874 130.118Z" fill="#263238" />
  <path d="M103.302 132.89L103.938 131.846L105.822 131.948L104.262 134.522L103.302 132.89Z" fill="#263238" />
  <path d="M101.688 134.954L102.504 134.042L104.34 134.486L102.342 136.73L101.688 134.954Z" fill="#263238" />
  <path d="M100.122 137.108L100.932 136.19L102.774 136.628L100.776 138.878L100.122 137.108Z" fill="#263238" />
  <path d="M99.048 140.054L99.468 138.902L101.34 138.638L100.314 141.458L99.048 140.054Z" fill="#263238" />
  <path
		d="M128.262 140.528C139.566 124.418 138.096 106.082 149.064 99.128L174.21 103.052C174.21 103.052 151.836 144.116 133.26 160.352C119.622 172.274 108.924 131.6 108.924 131.6C108.564 127.52 110.25 126.152 113.31 126.602C113.31 126.608 123.426 131.6 128.262 140.528Z"
		fill="#7F3E3B"
	/>
  <path
		d="M113.31 126.608C110.25 126.158 108.564 127.526 108.924 131.606C110.273 136.507 111.939 141.315 113.91 146C112.578 139.928 118.626 133.022 123.21 133.904C120.288 130.997 116.952 128.538 113.31 126.608Z"
		fill="#5293C7"
	/>
  <path
		d="M120.204 131.174C116.514 131.72 112.542 136.082 111.864 140.774C112.464 142.424 113.148 144.188 113.904 145.97C112.578 139.904 118.626 132.992 123.21 133.874C122.255 132.923 121.252 132.022 120.204 131.174Z"
		fill="#263238"
	/>
  <path
		d="M148.164 99.128C148.164 99.128 145.824 100.43 145.512 101.528C143.484 103.094 138.204 114.08 137.16 119.324C136.116 124.568 132.486 126.278 133.026 132.248C140.904 131.966 150.39 140.714 150.39 140.714C154.956 138.524 156.828 132.278 160.026 128.714C163.224 125.15 167.952 117.716 170.796 113.114C172.531 110.268 173.723 107.125 174.312 103.844L148.164 99.128Z"
		fill="#263238"
	/>
  <path
		d="M150.504 99.242C149.398 100.655 148.505 102.221 147.852 103.892C145.98 105.182 140.514 117.584 139.5 121.796C138.486 126.008 134.634 128.66 135.024 132.332C135.426 132.842 137.094 133.262 138.624 133.262C138.234 129.596 141.99 126.806 143.004 122.594C144.018 118.382 149.478 105.98 151.356 104.684C152.019 103.02 152.912 101.457 154.008 100.04L150.504 99.242Z"
		fill="white"
	/>
  <path
		d="M156.198 55.826C154.056 76.064 147.906 95.66 147.144 99.776C175.554 102.116 178.776 111.272 182.91 108.53C188.556 92.93 194.238 78.11 196.662 66.896C197.259 64.1305 196.869 61.2435 195.56 58.7352C194.252 56.2268 192.107 54.2552 189.498 53.162C182.772 50.4049 175.818 48.2426 168.714 46.7C167.285 46.3978 165.808 46.3997 164.38 46.7054C162.951 47.0111 161.603 47.6138 160.423 48.4744C159.242 49.3351 158.256 50.4344 157.528 51.7009C156.801 52.9674 156.347 54.3729 156.198 55.826Z"
		fill="#5293C7"
	/>
  <path
		d="M187.14 52.214C181.611 50.0818 175.939 48.3395 170.166 47C170.042 47.2572 169.986 47.5423 170.005 47.8273C170.024 48.1123 170.117 48.3875 170.274 48.626C171.648 51.026 176.406 53.186 181.272 54.326C182.292 54.5909 183.339 54.7438 184.392 54.782C185.592 54.782 186.414 54.404 186.864 53.666C187.118 53.2274 187.216 52.7153 187.14 52.214Z"
		fill="white"
	/>
  <path
		d="M174.6 36.974L183.642 38.888C184.242 43.496 183.642 46.328 184.674 50.042C185.79 52.184 187.374 54.326 181.596 52.976C175.596 51.578 171.9 49.232 171.624 48.266C175.2 46.814 174.6 41.426 174.6 36.974Z"
		fill="#7F3E3B"
	/>
  <path
		d="M174.474 43.58C174.376 44.5967 174.083 45.5849 173.61 46.49C178.206 48.11 181.146 46.256 182.874 43.622C180.088 43.238 177.264 43.2239 174.474 43.58Z"
		fill="black"
	/>
  <path
		d="M170.604 24.44C167.538 26.354 169.404 29.84 166.404 31.898C167.577 32.1377 168.797 31.9415 169.836 31.346C169.836 31.346 168.864 34.07 167.652 34.91C170.85 35.444 174.36 33.92 174.636 32.456C174.912 30.992 174.156 22.214 170.604 24.44Z"
		fill="#263238"
	/>
  <path
		d="M185.868 30.686C186.048 36.638 186.468 40.112 183.744 43.4C179.658 48.344 172.086 46.244 170.124 40.454C168.36 35.24 168.36 26.384 173.946 23.546C175.184 22.9175 176.561 22.6132 177.948 22.6617C179.336 22.7101 180.688 23.1097 181.879 23.8229C183.07 24.5362 184.061 25.54 184.758 26.7402C185.456 27.9405 185.838 29.2981 185.868 30.686Z"
		fill="#7F3E3B"
	/>
  <path
		d="M184.74 36.056C181.872 34.712 181.518 30.392 183.246 28.592C181.488 26.078 170.982 27.62 166.272 22.634C168.906 22.388 171.714 22.886 174.114 22.094C176.514 21.302 179.226 20.186 183.246 20.894C187.854 21.71 189.186 24.35 188.4 25.958C191.91 26.486 190.74 35.648 184.74 36.056Z"
		fill="#263238"
	/>
  <path
		d="M172.89 41.258C172.89 41.258 174.69 40.502 180.09 39.398C179.802 40.874 178.89 42.218 176.154 42.758C173.418 43.298 172.89 41.258 172.89 41.258Z"
		fill="#263238"
	/>
  <path
		d="M177.276 41.252C176.443 41.402 175.622 41.6166 174.822 41.894C174.663 41.9581 174.527 42.0709 174.436 42.2164C174.344 42.3618 174.301 42.5325 174.312 42.704C174.897 42.8785 175.518 42.8971 176.112 42.758C177.154 42.6092 178.133 42.1705 178.938 41.492C178.8 41.192 178.044 41.102 177.276 41.252Z"
		fill="white"
	/>
  <path
		d="M173.124 41.168C173.346 41.426 173.724 42.212 174.324 42.194C175.908 41.8659 177.468 41.4289 178.992 40.886C179.466 40.718 179.682 39.962 179.862 39.446C177.581 39.8738 175.33 40.449 173.124 41.168Z"
		fill="white"
	/>
  <path
		d="M188.766 35.6C188.643 36.3299 188.377 37.0282 187.983 37.6544C187.588 38.2806 187.073 38.8223 186.468 39.248C184.836 40.382 183.36 39.086 183.258 37.214C183.162 35.528 183.894 32.906 185.802 32.522C187.71 32.138 189.048 33.8 188.766 35.6Z"
		fill="#7F3E3B"
	/>
  <path
		d="M177.072 33.998C177.12 34.484 176.898 34.892 176.58 34.922C176.262 34.952 175.98 34.574 175.932 34.094C175.884 33.614 176.106 33.2 176.4 33.2C176.694 33.2 177.03 33.518 177.072 33.998Z"
		fill="#263238"
	/>
  <path
		d="M171.366 34.862C171.414 35.348 171.192 35.756 170.874 35.786C170.556 35.816 170.274 35.444 170.226 34.958C170.178 34.472 170.4 34.064 170.718 34.04C171.036 34.016 171.324 34.4 171.366 34.862Z"
		fill="#263238"
	/>
  <path
		d="M173.352 35.174C173.352 35.174 172.512 38.042 171.426 39.488C172.35 40.214 173.772 39.728 173.772 39.728L173.352 35.174Z"
		fill="#630F0F"
	/>
  <path
		d="M177.342 30.23C177.357 30.1831 177.357 30.1329 177.342 30.086C177.335 30.0492 177.32 30.0142 177.3 29.983C177.279 29.9518 177.252 29.9251 177.221 29.9045C177.189 29.8838 177.154 29.8696 177.117 29.8626C177.081 29.8557 177.043 29.8561 177.006 29.864C176.56 29.9423 176.139 30.1257 175.778 30.399C175.417 30.6724 175.126 31.0279 174.93 31.436C174.902 31.5061 174.903 31.5843 174.932 31.6539C174.961 31.7234 175.016 31.7788 175.086 31.808C175.157 31.834 175.235 31.8316 175.304 31.8015C175.374 31.7713 175.429 31.7156 175.458 31.646C175.622 31.3314 175.857 31.0593 176.145 30.8511C176.432 30.6428 176.764 30.5042 177.114 30.446C177.169 30.4375 177.221 30.4122 177.262 30.3736C177.302 30.335 177.33 30.2849 177.342 30.23Z"
		fill="#263238"
	/>
  <path
		d="M168.558 31.316C168.593 31.3464 168.635 31.3677 168.68 31.3782C168.725 31.3887 168.771 31.3879 168.816 31.376C169.158 31.2727 169.519 31.2532 169.87 31.319C170.221 31.3848 170.551 31.534 170.832 31.754C170.886 31.8064 170.958 31.8358 171.033 31.8358C171.108 31.8358 171.18 31.8064 171.234 31.754C171.286 31.7002 171.316 31.6281 171.316 31.553C171.316 31.4779 171.286 31.4058 171.234 31.352C170.883 31.0697 170.469 30.8765 170.027 30.7887C169.585 30.701 169.128 30.7213 168.696 30.848C168.66 30.8577 168.626 30.8745 168.597 30.8972C168.568 30.92 168.543 30.9484 168.525 30.9808C168.506 31.0131 168.494 31.0488 168.49 31.0857C168.485 31.1227 168.488 31.1602 168.498 31.196C168.507 31.2407 168.528 31.2822 168.558 31.316Z"
		fill="#263238"
	/>
  <path
		d="M144.09 56.396C139.656 58.796 146.136 68.93 151.464 67.286C155.112 64.748 156.636 56 144.09 56.396Z"
		fill="#263238"
	/>
  <path
		d="M164.7 59L163.278 59.924L161.88 60.8C160.944 61.36 160.002 61.906 159.054 62.438C157.14 63.488 155.202 64.484 153.21 65.438C151.218 66.392 149.172 67.238 147.072 68.024C146.532 68.216 146.034 68.408 145.464 68.594L143.76 69.152L141.96 69.632C141.36 69.77 140.838 69.878 140.268 69.992C135.985 70.7794 131.66 71.3163 127.314 71.6C123.048 71.912 118.812 72.074 114.516 71.99C113.839 71.9769 113.19 71.719 112.688 71.2641C112.186 70.8092 111.867 70.1881 111.788 69.5156C111.709 68.8431 111.876 68.1647 112.258 67.6059C112.641 67.0471 113.212 66.6458 113.868 66.476H113.904C117.948 65.432 122.04 64.478 126.072 63.518C128.088 63.02 130.098 62.564 132.072 62.042C134.046 61.52 136.014 61.028 137.874 60.452L139.23 60.02L140.43 59.6L141.63 59C142.038 58.814 142.5 58.574 142.926 58.364C144.69 57.512 146.436 56.564 148.194 55.604C149.952 54.644 151.698 53.636 153.438 52.604L158.604 49.574L158.76 49.484C160.021 48.7316 161.527 48.5035 162.954 48.8489C164.381 49.1942 165.616 50.0853 166.394 51.3309C167.171 52.5766 167.429 54.0774 167.113 55.5113C166.796 56.9451 165.93 58.1977 164.7 59Z"
		fill="#7F3E3B"
	/>
  <path
		d="M117.126 66.668L110.88 65.75L111.924 73.244C111.924 73.244 117.678 73.388 118.248 70.346L117.126 66.668Z"
		fill="#7F3E3B"
	/>
  <path
		d="M105.6 69.62L106.404 72.188C106.562 72.682 106.889 73.1042 107.329 73.3799C107.768 73.6555 108.291 73.7668 108.804 73.694L111.93 73.244L110.886 65.75L107.07 66.866C106.79 66.9469 106.53 67.0829 106.304 67.2661C106.078 67.4493 105.891 67.676 105.754 67.9327C105.617 68.1894 105.532 68.471 105.506 68.7608C105.48 69.0506 105.512 69.3428 105.6 69.62Z"
		fill="#7F3E3B"
	/>
  <path
		d="M167.802 46.55C163.758 45.668 159.402 47.09 157.494 48.086C155.586 49.082 149.532 53.882 144.09 56.396C153.57 58.736 152.166 65.396 151.464 67.286C163.2 64.004 164.52 60.968 166.8 58.544C169.08 56.12 171 47.24 167.802 46.55Z"
		fill="#5293C7"
	/>
  <path
		d="M167.802 46.55C163.758 45.668 159.402 47.09 157.494 48.086C155.586 49.082 149.532 53.882 144.09 56.396C153.57 58.736 152.166 65.396 151.464 67.286C163.2 64.004 164.52 60.968 166.8 58.544C169.08 56.12 171 47.24 167.802 46.55Z"
		fill="black"
	/>
  <path
		d="M193.302 70.802C193.008 73.046 191.502 74.696 189.87 74.486C188.238 74.276 187.206 72.284 187.5 70.04C187.794 67.796 189.33 66.146 190.938 66.362C192.546 66.578 193.596 68.558 193.302 70.802Z"
		fill="white"
	/>
  <path
		d="M178.584 26.954C172.89 26.894 169.488 28.388 166.74 27.83C169.998 26.252 171.06 24.398 173.61 24.05C176.16 23.702 178.584 26.954 178.584 26.954Z"
		fill="#263238"
	/>
  <path
		d="M184.326 26.696C182.526 27.77 178.158 27.296 176.076 27.95C179.202 28.49 183.036 29.468 184.758 28.586C186.48 27.704 184.326 26.696 184.326 26.696Z"
		fill="#263238"
	/>
  <path
		d="M185.256 27.362C185.979 27.2182 186.678 26.9717 187.332 26.63C187.904 26.2757 188.322 25.7187 188.502 25.07C188.594 24.7414 188.62 24.3978 188.579 24.0591C188.538 23.7203 188.43 23.393 188.262 23.096C187.89 22.4598 187.353 21.9355 186.708 21.578C185.328 20.837 183.748 20.5514 182.196 20.762C181.392 20.9272 180.564 20.9272 179.76 20.762C178.987 20.5022 178.272 20.0947 177.654 19.562C178.296 20.044 179.025 20.3965 179.802 20.6C180.591 20.6974 181.392 20.63 182.154 20.402C183.799 20.0607 185.509 20.2519 187.038 20.948C187.832 21.3287 188.509 21.915 189 22.646C189.518 23.4305 189.704 24.3887 189.516 25.31C189.323 26.2473 188.789 27.0793 188.016 27.644C187.274 28.1175 186.465 28.4775 185.616 28.712C185.439 28.7717 185.246 28.7587 185.079 28.676C184.912 28.5933 184.785 28.4476 184.725 28.271C184.665 28.0944 184.678 27.9013 184.761 27.7342C184.844 27.5671 184.989 27.4397 185.166 27.38H185.22L185.256 27.362Z"
		fill="#263238"
	/>
  <path
		d="M175.44 26.42C175.24 26.021 174.953 25.6723 174.6 25.4C174.195 25.137 173.739 24.9632 173.262 24.89C172.205 24.7626 171.133 24.8818 170.13 25.238C169.601 25.3995 169.089 25.6104 168.6 25.868C168.126 26.132 167.634 26.468 167.106 26.69C166.579 26.9453 166.005 27.0864 165.42 27.104C164.85 27.1013 164.282 27.0308 163.728 26.894C164.284 26.9749 164.849 26.987 165.408 26.93C165.954 26.8589 166.478 26.6706 166.944 26.378C167.424 26.102 167.844 25.778 168.324 25.418C168.807 25.0897 169.319 24.8065 169.854 24.572C170.947 24.0585 172.145 23.8059 173.352 23.834C174.004 23.862 174.641 24.0341 175.218 24.338C175.806 24.6797 176.305 25.1544 176.676 25.724C176.727 25.8028 176.762 25.8909 176.78 25.9833C176.797 26.0757 176.796 26.1706 176.776 26.2625C176.757 26.3544 176.719 26.4416 176.666 26.5191C176.613 26.5966 176.545 26.6628 176.466 26.714C176.387 26.7652 176.299 26.8004 176.207 26.8176C176.114 26.8348 176.019 26.8335 175.928 26.814C175.836 26.7945 175.748 26.7571 175.671 26.7039C175.593 26.6507 175.527 26.5828 175.476 26.504C175.473 26.4841 175.473 26.4639 175.476 26.444L175.44 26.42Z"
		fill="#263238"
	/>
  <path
		d="M169.08 20.672C169.08 20.672 171.042 22.688 174.918 22.832L176.634 21.284C173.262 22.262 169.08 20.672 169.08 20.672Z"
		fill="#263238"
	/>
  <path
		d="M239.808 177.884C250.008 162.062 257.256 145.256 258.246 139.904L239.358 142.766C239.358 142.766 233.472 162.938 230.802 173.882C228.024 185.282 236.088 214.682 236.088 214.682L240.6 215C239.13 197.522 244.8 184.82 239.808 177.884Z"
		fill="#CE7A63"
	/>
  <path
		d="M241.2 216.2C241.002 213.098 240.798 199.808 241.92 193.184C238.441 191.842 234.644 191.55 231 192.344C230.832 193.316 233.544 207.476 235.2 216.062L241.2 216.2Z"
		fill="#263238"
	/>
  <path
		d="M226.422 217.796C230.22 216.668 232.422 216.14 233.79 214.136C233.79 214.136 232.788 214.136 233.748 213.038C234.708 211.94 238.146 211.298 238.41 213.092C238.41 213.092 240.534 212.39 241.59 213.692L242.112 219.092C242.119 219.195 242.106 219.298 242.071 219.396C242.037 219.493 241.983 219.582 241.912 219.658C241.842 219.733 241.757 219.793 241.662 219.834C241.567 219.875 241.465 219.896 241.362 219.896C239.01 219.896 237.672 219.512 235.398 219.476C232.74 219.434 230.922 219.986 227.802 219.938C225.918 219.878 225.63 218.036 226.422 217.796Z"
		fill="#5293C7"
	/>
  <path d="M240.426 220.358H241.218L241.794 219.278H239.85L240.426 220.358Z" fill="#5293C7" />
  <path d="M238.248 220.292H239.04L239.616 219.212H237.672L238.248 220.292Z" fill="#5293C7" />
  <path d="M236.064 220.118H236.856L237.432 219.038H235.488L236.064 220.118Z" fill="#5293C7" />
  <path d="M233.886 220.292H234.678L235.254 219.212H233.31L233.886 220.292Z" fill="#5293C7" />
  <path d="M231.702 220.358H232.494L233.07 219.278H231.126L231.702 220.358Z" fill="#5293C7" />
  <path d="M229.524 220.358H230.316L230.892 219.278H228.948L229.524 220.358Z" fill="#5293C7" />
  <path d="M227.34 220.358H228.132L228.708 219.278H226.764L227.34 220.358Z" fill="#5293C7" />
  <path
		d="M267.102 177.014C262.44 160.508 262.422 148.436 259.53 143.246L245.262 145.046C245.262 145.046 252.42 167.888 256.182 178.508C261.96 190.946 274.83 206.792 274.83 206.792L278.892 204.152C272.28 191.876 271.914 185.27 267.102 177.014Z"
		fill="#CE7A63"
	/>
  <path
		d="M281.106 206.816C279.654 204.242 273.99 192.974 272.214 186.854C268.699 187.145 265.346 188.457 262.566 190.628C262.824 191.528 270.966 202.502 275.94 209.156L281.106 206.816Z"
		fill="#263238"
	/>
  <path
		d="M270.906 214.604C272.172 212.864 273.606 210.404 273.948 208.094C273.948 208.094 272.34 207.74 272.712 206.426C273.084 205.112 276.498 203.87 277.464 205.292C277.464 205.292 278.562 202.778 279.996 203.444L282.51 207.572C282.93 208.172 283.11 209.276 281.808 210.056C280.658 210.71 279.603 211.518 278.67 212.456C276.918 214.256 277.182 215.69 274.104 216.53C272.4 217.028 269.19 216.962 270.906 214.604Z"
		fill="#5293C7"
	/>
  <path d="M282.312 210.074L282.81 209.504L282.396 208.418L281.184 209.81L282.312 210.074Z" fill="#5293C7" />
  <path d="M280.626 211.124L281.298 210.794L281.34 209.636L279.684 210.446L280.626 211.124Z" fill="#5293C7" />
  <path d="M279.246 212.324L279.864 211.898L279.726 210.74L278.214 211.796L279.246 212.324Z" fill="#5293C7" />
  <path d="M278.106 213.83L278.538 213.218L278.022 212.18L276.954 213.686L278.106 213.83Z" fill="#5293C7" />
  <path d="M276.864 215.288L277.368 214.724L276.966 213.638L275.736 215.012L276.864 215.288Z" fill="#5293C7" />
  <path d="M275.268 216.416L275.952 216.11L276.036 214.952L274.35 215.702L275.268 216.416Z" fill="#5293C7" />
  <path d="M273.528 216.962L274.26 216.8L274.572 215.684L272.772 216.086L273.528 216.962Z" fill="#5293C7" />
  <path d="M271.548 217.034L272.298 217.052L272.868 216.044L271.026 215.996L271.548 217.034Z" fill="#5293C7" />
  <path
		d="M240.456 141.446C240.456 141.446 238.95 142.304 238.758 143C237.456 144.026 234.558 152.918 234.39 156.374C234.222 159.83 232.032 161.432 232.974 165.188C236.46 167.888 244.932 169.454 244.932 169.454C247.632 167.6 248.922 163.208 250.572 160.568C252.324 157.772 253.416 151.7 254.202 148.472C255.03 145.07 256.182 144.068 256.182 144.068L240.456 141.446Z"
		fill="#5293C7"
	/>
  <path
		d="M251.742 152C246.294 156.2 245.508 163.538 246.888 167.444C248.37 165.32 249.378 162.5 250.572 160.592C251.826 158.582 252.744 154.892 253.452 151.772L251.742 152Z"
		fill="black"
	/>
  <path
		d="M238.11 117.8C237.348 118.328 236.568 118.814 235.788 119.294C235.008 119.774 234.216 120.248 233.388 120.698C232.56 121.148 231.774 121.604 230.952 122.036C230.13 122.468 229.314 122.894 228.39 123.338L228.036 123.506C227.972 123.534 227.906 123.558 227.838 123.578C225.344 124.229 222.778 124.566 220.2 124.58C218.946 124.58 217.71 124.55 216.474 124.448C215.229 124.346 213.991 124.171 212.766 123.926C212.289 123.916 211.835 123.718 211.504 123.373C211.173 123.029 210.992 122.567 211.002 122.09C211.012 121.613 211.21 121.159 211.555 120.828C211.899 120.497 212.361 120.316 212.838 120.326H212.94C214.02 120.152 215.184 119.978 216.294 119.78C217.404 119.582 218.526 119.378 219.618 119.138C220.71 118.898 221.772 118.628 222.81 118.346C223.848 118.064 224.838 117.698 225.78 117.338L225.228 117.578L227.382 116.084C228.118 115.568 228.866 115.058 229.626 114.554C230.376 114.044 231.144 113.552 231.906 113.06C232.668 112.568 233.448 112.088 234.234 111.638C235.051 111.124 236.039 110.956 236.98 111.17C237.921 111.384 238.739 111.964 239.253 112.781C239.767 113.598 239.935 114.586 239.721 115.527C239.507 116.468 238.927 117.286 238.11 117.8Z"
		fill="#CF7A64"
	/>
  <path
		d="M237.876 108.2C234.414 109.4 229.992 113.702 228.66 114.638C226.896 115.874 227.238 118.958 228.156 120.29C228.882 121.34 230.16 122.456 231.978 122.042C233.796 121.628 241.302 117.566 241.302 117.566C241.302 117.566 242.1 106.514 237.876 108.2Z"
		fill="#5293C7"
	/>
  <path
		d="M214.074 120.398L210.15 120.224L211.272 124.802C211.272 124.802 214.842 124.526 215.004 122.6L214.074 120.398Z"
		fill="#CE7A63"
	/>
  <path
		d="M207.12 122.96L207.78 124.496C207.909 124.793 208.139 125.034 208.429 125.178C208.718 125.321 209.05 125.358 209.364 125.282L211.272 124.802L210.15 120.2L207.852 121.136C207.681 121.204 207.526 121.306 207.396 121.436C207.266 121.565 207.163 121.72 207.095 121.891C207.026 122.062 206.993 122.244 206.998 122.428C207.002 122.612 207.044 122.793 207.12 122.96Z"
		fill="#CE7A63"
	/>
  <path
		d="M260.526 141.272C260.526 141.272 262.266 145.766 262.194 146.492C263.028 147.92 264.3 153.092 264.15 156.554C264 160.016 265.878 161.912 264.33 165.368C259.422 163.982 252.552 167.954 252.552 167.954C250.02 165.878 249.804 161.666 248.352 158.918C246.9 156.17 244.83 150.746 244.236 147.29C243.642 143.834 243.36 141.836 243.36 141.836L260.526 141.272Z"
		fill="#5293C7"
	/>
  <path
		d="M260.766 162.422C257.472 162.494 253.566 164.144 250.932 165.878C251.325 166.673 251.874 167.382 252.546 167.96C252.546 167.96 259.428 163.976 264.33 165.368C264.679 164.613 264.883 163.799 264.93 162.968C263.586 162.536 262.176 162.351 260.766 162.422Z"
		fill="white"
	/>
  <path
		d="M259.392 112.814C258.888 125.96 261.378 140.414 260.85 142.13C242.448 141.002 240.216 144.884 237.786 144.53C235.614 134.024 234.816 123.176 234.018 115.802C233.61 112.052 234.672 108.968 238.326 108.002C242.887 106.864 247.539 106.128 252.228 105.8C253.172 105.738 254.118 105.876 255.005 106.205C255.892 106.534 256.7 107.046 257.376 107.707C258.052 108.369 258.581 109.166 258.928 110.046C259.276 110.926 259.434 111.869 259.392 112.814Z"
		fill="#263238"
	/>
  <path
		d="M249.426 116.792C249.6 118.664 247.734 120.524 247.734 120.524C247.734 120.524 245.592 119.354 245.418 117.488C245.244 115.622 246.132 115.328 247.218 115.136C248.304 114.944 249.252 114.926 249.426 116.792Z"
		fill="white"
	/>
  <path
		d="M259.392 112.808C259.428 111.906 259.282 111.005 258.964 110.16C258.645 109.315 258.16 108.542 257.538 107.888C254.796 113.732 256.578 118.688 259.47 122.45C259.326 119.294 259.272 116 259.392 112.808Z"
		fill="black"
	/>
  <path
		d="M239.928 107.636C243.662 106.787 247.452 106.201 251.268 105.884C251.323 106.061 251.331 106.248 251.293 106.429C251.254 106.61 251.169 106.778 251.046 106.916C249.948 108.32 246.702 109.268 243.48 109.544C242.802 109.623 242.118 109.623 241.44 109.544C241.132 109.534 240.833 109.441 240.573 109.275C240.313 109.11 240.103 108.877 239.964 108.602C239.836 108.295 239.823 107.952 239.928 107.636Z"
		fill="white"
	/>
  <path
		d="M249.306 98.402L242.706 100.538C242.898 103.538 244.272 105.5 241.464 107.036C240.78 107.408 239.586 108.968 243.408 108.638C247.374 108.296 249.96 107.138 250.224 106.544C249.47 103.899 249.16 101.148 249.306 98.402Z"
		fill="#CE7A63"
	/>
  <path
		d="M243 102.632C243.246 104.036 243.444 105.164 242.652 106.124C245.388 105.74 247.584 103.622 247.794 101.924C246.988 101.715 246.149 101.67 245.325 101.792C244.502 101.914 243.711 102.199 243 102.632Z"
		fill="black"
	/>
  <path
		d="M238.476 88.61C237.174 90.824 239.706 92.12 239.706 92.12C239.706 92.12 237.948 96.968 239.19 100.004C241.542 98.066 242.088 91.004 242.088 91.004L238.476 88.61Z"
		fill="#263238"
	/>
  <path
		d="M250.2 95.21C249.762 99.038 249.708 101.3 247.662 103.154C244.59 105.938 239.94 103.892 239.22 100.004C238.572 96.506 239.394 90.836 243.234 89.54C244.084 89.2521 244.993 89.1846 245.876 89.3438C246.759 89.5029 247.588 89.8836 248.284 90.4501C248.98 91.0166 249.521 91.7504 249.856 92.5829C250.191 93.4154 250.309 94.3193 250.2 95.21Z"
		fill="#CE7A63"
	/>
  <path
		d="M248.4 94.4C247.932 96.464 246.108 98.978 246.108 98.978C244.609 98.7521 243.094 98.6497 241.578 98.672C239.424 98.744 238.392 98.252 238.506 99.602C238.62 100.952 239.28 102.158 238.71 104.402C238.14 106.646 244.926 105.512 247.68 103.856C247.935 103.701 248.141 103.478 248.275 103.211C248.41 102.945 248.468 102.647 248.442 102.35C248.184 99.062 248.442 98.06 249.168 96.806C249.239 96.3728 249.206 95.929 249.073 95.5109C248.939 95.0928 248.709 94.7121 248.4 94.4Z"
		fill="#263238"
	/>
  <path
		d="M241.638 96.272C241.213 97.203 240.662 98.0711 240 98.852C240.205 99.0189 240.443 99.1388 240.7 99.2031C240.956 99.2673 241.223 99.2745 241.482 99.224L241.638 96.272Z"
		fill="#BA4D3C"
	/>
  <path
		d="M249.306 98.402C247.212 96.464 248.838 94.304 248.43 92.636C248.022 90.968 241.494 93.746 238.692 89.708C235.89 85.67 241.584 82.178 245.472 85.586C250.272 89.786 253.5 87.614 252.84 91.496C256.032 92.636 252.06 100.154 249.306 98.402Z"
		fill="#263238"
	/>
  <path
		d="M252.138 91.718C252.138 91.718 254.016 90.764 253.65 89.09C254.964 90.752 253.8 92.048 252.138 91.718Z"
		fill="#263238"
	/>
  <path
		d="M251.772 98.6C251.293 99.4372 250.501 100.05 249.57 100.304C248.328 100.628 248.22 99.104 248.514 97.904C248.778 96.848 249.612 95.738 250.854 95.93C252.096 96.122 252.348 97.556 251.772 98.6Z"
		fill="#CE7A63"
	/>
  <path
		d="M244.128 95.864C244.128 96.176 243.93 96.422 243.726 96.41C243.522 96.398 243.372 96.134 243.384 95.81C243.396 95.486 243.582 95.258 243.786 95.27C243.99 95.282 244.14 95.552 244.128 95.864Z"
		fill="#263238"
	/>
  <path
		d="M240.396 95.888C240.396 96.2 240.198 96.446 239.994 96.434C239.79 96.422 239.64 96.158 239.652 95.834C239.664 95.51 239.85 95.276 240.054 95.288C240.258 95.3 240.408 95.6 240.396 95.888Z"
		fill="#263238"
	/>
  <path
		d="M244.92 93.602C244.927 93.5724 244.927 93.5416 244.92 93.512C244.92 93.4879 244.915 93.4639 244.906 93.4417C244.896 93.4195 244.883 93.3994 244.865 93.3826C244.848 93.3658 244.827 93.3526 244.805 93.3439C244.782 93.3353 244.758 93.3312 244.734 93.332C244.441 93.3285 244.151 93.3946 243.888 93.525C243.625 93.6554 243.397 93.8463 243.222 94.082C243.197 94.1229 243.188 94.1719 243.198 94.2189C243.208 94.2659 243.236 94.3071 243.276 94.334C243.318 94.3596 243.368 94.3683 243.416 94.3583C243.464 94.3482 243.506 94.3202 243.534 94.28C243.671 94.0905 243.851 93.9369 244.06 93.8324C244.269 93.7279 244.5 93.6756 244.734 93.68C244.769 93.6879 244.806 93.6847 244.839 93.6707C244.873 93.6567 244.901 93.6327 244.92 93.602Z"
		fill="#263238"
	/>
  <path
		d="M238.848 93.8C238.875 93.8133 238.905 93.8202 238.935 93.8202C238.965 93.8202 238.995 93.8133 239.022 93.8C239.237 93.7186 239.469 93.6902 239.698 93.7174C239.927 93.7445 240.146 93.8264 240.336 93.956C240.374 93.9856 240.423 93.9991 240.471 93.9935C240.519 93.9879 240.563 93.9637 240.594 93.926C240.609 93.9069 240.62 93.885 240.627 93.8615C240.633 93.838 240.635 93.8134 240.631 93.7893C240.628 93.7652 240.62 93.742 240.607 93.7211C240.594 93.7003 240.578 93.6822 240.558 93.668C240.32 93.4999 240.046 93.3919 239.757 93.3532C239.469 93.3146 239.175 93.3464 238.902 93.446C238.871 93.4582 238.844 93.4782 238.824 93.5039C238.803 93.5296 238.789 93.5602 238.784 93.5928C238.778 93.6254 238.781 93.6588 238.793 93.6898C238.804 93.7209 238.823 93.7485 238.848 93.77V93.8Z"
		fill="#263238"
	/>
  <path
		d="M259.83 108.668C261.03 109.52 262.056 110.36 263.124 111.26C264.192 112.16 265.224 113.06 266.232 114.026C268.341 115.975 270.269 118.112 271.992 120.41L272.148 120.62C272.506 121.107 272.699 121.696 272.7 122.3C272.681 123.85 272.543 125.397 272.286 126.926C272.07 128.39 271.764 129.806 271.446 131.21C271.128 132.614 270.75 134 270.342 135.374C269.934 136.748 269.502 138.092 268.986 139.454C268.857 139.887 268.569 140.255 268.18 140.486C267.792 140.717 267.33 140.793 266.888 140.699C266.446 140.605 266.055 140.349 265.794 139.98C265.532 139.612 265.419 139.158 265.476 138.71V138.68C265.554 137.306 265.662 135.908 265.764 134.528C265.866 133.148 265.962 131.774 266.046 130.406C266.13 129.038 266.196 127.682 266.238 126.362C266.281 125.105 266.253 123.847 266.154 122.594L266.862 124.484C266.076 123.62 265.182 122.762 264.276 121.898C263.37 121.034 262.392 120.206 261.426 119.366C260.46 118.526 259.452 117.71 258.426 116.888L255.426 114.488L255.384 114.452C255.006 114.162 254.688 113.801 254.45 113.389C254.211 112.977 254.056 112.521 253.993 112.049C253.931 111.577 253.962 111.097 254.084 110.637C254.207 110.177 254.419 109.745 254.709 109.367C254.999 108.989 255.36 108.671 255.772 108.433C256.184 108.194 256.64 108.039 257.112 107.976C257.584 107.914 258.064 107.945 258.524 108.067C258.984 108.19 259.416 108.402 259.794 108.692L259.83 108.668Z"
		fill="#CF7A64"
	/>
  <path
		d="M266.448 137.054L264.126 140.414L268.77 141.956C268.77 141.956 270.504 138.662 268.902 137.462L266.448 137.054Z"
		fill="#CE7A63"
	/>
  <path
		d="M264.852 144.59L266.574 144.854C266.905 144.905 267.243 144.837 267.529 144.663C267.814 144.488 268.029 144.218 268.134 143.9L268.77 141.956L264.126 140.414L263.676 142.946C263.644 143.131 263.65 143.321 263.692 143.504C263.734 143.687 263.812 143.86 263.921 144.013C264.03 144.166 264.169 144.296 264.329 144.395C264.489 144.494 264.666 144.56 264.852 144.59Z"
		fill="#CE7A63"
	/>
  <path
		d="M253.314 105.83C255.972 105.526 258.649 106.207 260.838 107.744C263.346 109.598 264.582 110.876 266.604 114.194C265.951 117.01 264.285 119.487 261.924 121.154C257.874 117.914 254.46 115.478 253.338 113.648C252.216 111.818 251.232 106.058 253.314 105.83Z"
		fill="#5293C7"
	/>
  <path
		d="M232.884 162.038C232.668 163.081 232.699 164.159 232.974 165.188C236.46 167.888 244.932 169.454 244.932 169.454C245.65 168.939 246.273 168.304 246.774 167.576C243.792 166.784 236.004 164.078 232.884 162.038Z"
		fill="white"
	/>
  <path
		d="M273.438 190.4C270.427 191.249 267.54 192.49 264.852 194.09C265.164 194.516 265.494 194.984 265.842 195.47C268.419 193.955 271.182 192.781 274.062 191.978C273.84 191.432 273.63 190.904 273.438 190.4Z"
		fill="#5293C7"
	/>
  <path
		d="M274.704 193.52C271.98 194.337 269.362 195.473 266.904 196.904C267.222 197.348 267.558 197.81 267.906 198.278C270.273 196.928 272.787 195.854 275.4 195.08C275.154 194.558 274.926 194.042 274.704 193.52Z"
		fill="#5293C7"
	/>
  <path
		d="M231.426 195.656C231.51 196.166 231.606 196.73 231.708 197.33C234.94 197.116 238.185 197.37 241.344 198.086C241.386 197.486 241.434 196.934 241.482 196.382C238.184 195.649 234.795 195.404 231.426 195.656Z"
		fill="#5293C7"
	/>
  <path
		d="M232.014 199.082C232.11 199.622 232.212 200.192 232.32 200.774C235.286 200.614 238.259 200.846 241.164 201.464C241.164 200.864 241.206 200.318 241.242 199.754C238.209 199.125 235.106 198.899 232.014 199.082Z"
		fill="#5293C7"
	/>
  <path
		d="M135.554 218.942C143.449 211.564 144.626 199.993 138.182 193.098C131.739 186.203 120.115 186.594 112.219 193.972C104.324 201.35 103.147 212.921 109.591 219.816C116.034 226.711 127.658 226.32 135.554 218.942Z"
		fill="white"
	/>
  <path
		d="M121.41 225.044C119.079 225.092 116.765 224.635 114.628 223.703C112.491 222.77 110.582 221.386 109.032 219.644C105.948 216.116 104.628 211.418 105.306 206.414C106.692 196.214 116.106 187.868 126.366 187.868C128.697 187.82 131.01 188.278 133.147 189.211C135.284 190.143 137.193 191.527 138.744 193.268C141.828 196.796 143.148 201.494 142.47 206.498C141.084 216.722 131.634 225.044 121.41 225.044ZM126.366 188.444C116.43 188.444 107.244 196.532 105.9 206.474C105.543 208.733 105.68 211.043 106.301 213.244C106.923 215.445 108.014 217.485 109.5 219.224C110.994 220.901 112.835 222.234 114.894 223.131C116.953 224.028 119.182 224.468 121.428 224.42C131.364 224.42 140.544 216.332 141.894 206.39C142.251 204.131 142.114 201.821 141.492 199.62C140.871 197.419 139.78 195.379 138.294 193.64C136.797 191.968 134.956 190.64 132.897 189.747C130.838 188.854 128.61 188.418 126.366 188.468V188.444Z"
		fill="#263238"
	/>
  <path
		d="M124.698 202.196C124.691 202.251 124.663 202.302 124.621 202.338C124.579 202.375 124.526 202.395 124.47 202.394C124.439 202.39 124.409 202.381 124.382 202.365C124.355 202.35 124.332 202.329 124.313 202.305C124.294 202.28 124.28 202.252 124.272 202.222C124.264 202.192 124.262 202.161 124.266 202.13L124.362 201.416L118.83 205.076L119.49 205.304C119.52 205.313 119.547 205.328 119.571 205.347C119.594 205.367 119.614 205.391 119.628 205.419C119.642 205.446 119.65 205.476 119.652 205.507C119.654 205.538 119.65 205.569 119.64 205.598C119.623 205.644 119.593 205.684 119.554 205.713C119.514 205.742 119.467 205.758 119.418 205.76H119.34L118.422 205.448L119.622 211.616L120.24 210.8C120.281 210.754 120.338 210.727 120.399 210.723C120.461 210.719 120.521 210.739 120.567 210.779C120.614 210.819 120.642 210.876 120.647 210.937C120.652 210.998 120.633 211.059 120.594 211.106L119.85 212H126.45L125.922 211.106C125.906 211.08 125.896 211.05 125.891 211.02C125.887 210.99 125.888 210.959 125.896 210.929C125.904 210.899 125.917 210.871 125.935 210.846C125.954 210.822 125.977 210.801 126.003 210.785C126.029 210.769 126.059 210.759 126.089 210.754C126.119 210.75 126.15 210.752 126.18 210.759C126.21 210.767 126.238 210.78 126.263 210.798C126.287 210.817 126.308 210.84 126.324 210.866L126.78 211.634L129.6 205.466L128.688 205.748H128.622C128.572 205.748 128.523 205.732 128.482 205.702C128.442 205.671 128.413 205.629 128.4 205.58C128.381 205.521 128.386 205.457 128.414 205.402C128.442 205.347 128.491 205.305 128.55 205.286L129.366 205.034L124.8 201.368L124.698 202.196Z"
		fill="#263238"
	/>
  <path d="M124.812 201.368L129.378 205.046L130.08 204.83L124.908 200.66L124.812 201.368Z" fill="#263238" />
  <path
		d="M127.164 212.246L130.344 205.34C130.352 205.305 130.352 205.268 130.344 205.232L129.594 205.466L126.768 211.61L127.164 212.246Z"
		fill="#263238"
	/>
  <path d="M119.334 212.6H126.822L126.462 212H119.862L119.334 212.6Z" fill="#263238" />
  <path
		d="M117.75 205.214C117.75 205.214 117.75 205.25 117.75 205.268L119.058 212.186L119.568 211.586L118.368 205.418L117.75 205.214Z"
		fill="#263238"
	/>
  <path d="M124.446 200.612L118.068 204.83L118.8 205.076L124.332 201.416L124.446 200.612Z" fill="#263238" />
  <path
		d="M125.22 194.876L125.334 194.048C125.343 193.987 125.376 193.932 125.425 193.895C125.475 193.857 125.537 193.841 125.598 193.85C125.628 193.854 125.657 193.863 125.683 193.878C125.71 193.893 125.733 193.913 125.751 193.938C125.77 193.962 125.783 193.989 125.791 194.018C125.798 194.048 125.8 194.078 125.796 194.108L125.7 194.828L131.658 190.886L131.274 188.87C129.68 188.402 128.027 188.166 126.366 188.168C124.653 188.173 122.947 188.407 121.296 188.864L120.342 190.94L125.22 194.876Z"
		fill="#263238"
	/>
  <path
		d="M120.162 190.904C120.196 190.956 120.208 191.019 120.196 191.08C120.184 191.14 120.148 191.194 120.096 191.228L119.892 191.36L125.124 195.56L125.22 194.858L120.342 190.922L121.296 188.846C121.038 188.912 120.78 188.99 120.528 189.068L119.688 190.868C119.685 190.88 119.685 190.892 119.688 190.904L119.844 190.802C119.872 190.788 119.902 190.779 119.933 190.776C119.964 190.773 119.995 190.777 120.024 190.786C120.054 190.796 120.081 190.811 120.105 190.831C120.129 190.852 120.148 190.876 120.162 190.904Z"
		fill="#263238"
	/>
  <path
		d="M125.7 194.828L125.592 195.626L132.036 191.366L131.844 191.21C131.816 191.192 131.792 191.169 131.774 191.141C131.756 191.114 131.744 191.082 131.739 191.05C131.734 191.017 131.735 190.984 131.744 190.952C131.752 190.92 131.768 190.89 131.789 190.865C131.809 190.839 131.836 190.818 131.865 190.803C131.895 190.789 131.927 190.78 131.96 190.779C131.993 190.778 132.026 190.783 132.057 190.795C132.087 190.808 132.115 190.826 132.138 190.85L132.288 190.97L131.934 189.08C131.712 189.002 131.496 188.936 131.274 188.87L131.658 190.886L125.7 194.828Z"
		fill="#263238"
	/>
  <path
		d="M124.332 201.416L124.236 202.13C124.232 202.161 124.234 202.192 124.242 202.222C124.25 202.252 124.264 202.28 124.283 202.305C124.302 202.329 124.325 202.35 124.352 202.365C124.379 202.381 124.409 202.39 124.44 202.394C124.496 202.394 124.549 202.375 124.591 202.338C124.633 202.302 124.661 202.251 124.668 202.196L124.782 201.368L125.67 194.828L125.766 194.108C125.77 194.078 125.768 194.048 125.761 194.018C125.753 193.989 125.74 193.962 125.721 193.938C125.703 193.913 125.68 193.893 125.653 193.878C125.627 193.863 125.598 193.854 125.568 193.85C125.507 193.841 125.445 193.857 125.395 193.895C125.346 193.932 125.313 193.987 125.304 194.048L125.094 195.578L124.446 200.6L124.332 201.416Z"
		fill="#263238"
	/>
  <path
		d="M112.626 203.474L111.966 203.246C111.936 203.237 111.909 203.222 111.885 203.203C111.862 203.183 111.842 203.159 111.828 203.131C111.814 203.104 111.806 203.074 111.804 203.043C111.802 203.012 111.806 202.981 111.816 202.952C111.825 202.922 111.841 202.895 111.861 202.871C111.881 202.847 111.906 202.828 111.934 202.814C111.962 202.8 111.993 202.791 112.024 202.789C112.055 202.787 112.086 202.792 112.116 202.802L113.034 203.114L111.792 196.574H109.848C107.597 199.413 106.133 202.794 105.6 206.378L106.8 207.332L112.626 203.474Z"
		fill="#263238"
	/>
  <path
		d="M106.734 207.476C106.795 207.465 106.858 207.479 106.909 207.513C106.961 207.548 106.997 207.601 107.01 207.662L107.052 207.89L113.358 203.72L112.626 203.474L106.8 207.332L105.6 206.378C105.603 206.404 105.603 206.43 105.6 206.456C105.6 206.672 105.552 206.882 105.534 207.092L106.584 207.938L106.548 207.752C106.542 207.722 106.542 207.69 106.548 207.66C106.554 207.63 106.566 207.601 106.583 207.575C106.601 207.55 106.623 207.528 106.649 207.511C106.675 207.493 106.704 207.482 106.734 207.476Z"
		fill="#263238"
	/>
  <path
		d="M113.034 203.114L113.676 203.336C113.676 203.336 113.676 203.3 113.676 203.282L112.362 196.334L112.17 196.46C112.132 196.488 112.085 196.503 112.038 196.502C111.989 196.5 111.941 196.483 111.903 196.453C111.864 196.423 111.835 196.382 111.821 196.335C111.807 196.287 111.809 196.237 111.825 196.191C111.841 196.144 111.872 196.104 111.912 196.076L112.068 195.968H110.34C110.172 196.172 110.004 196.37 109.848 196.568H111.792L113.034 203.114Z"
		fill="#263238"
	/>
  <path
		d="M118.392 205.43L119.31 205.742H119.388C119.437 205.74 119.484 205.724 119.524 205.695C119.563 205.666 119.593 205.626 119.61 205.58C119.62 205.551 119.624 205.52 119.622 205.489C119.62 205.458 119.612 205.428 119.598 205.401C119.584 205.373 119.564 205.349 119.541 205.329C119.517 205.31 119.49 205.295 119.46 205.286L118.8 205.058L118.068 204.812L113.676 203.318L113.034 203.096L112.116 202.784C112.086 202.774 112.055 202.769 112.024 202.771C111.993 202.773 111.962 202.782 111.934 202.796C111.906 202.81 111.881 202.829 111.861 202.853C111.841 202.877 111.825 202.904 111.816 202.934C111.806 202.963 111.802 202.994 111.804 203.025C111.806 203.056 111.814 203.086 111.828 203.113C111.842 203.141 111.862 203.165 111.885 203.185C111.909 203.204 111.936 203.219 111.966 203.228L112.626 203.456L113.358 203.702L117.75 205.196L118.392 205.43Z"
		fill="#263238"
	/>
  <path
		d="M135.684 203.084L136.596 202.802C136.626 202.793 136.657 202.789 136.687 202.792C136.718 202.795 136.748 202.804 136.776 202.819C136.803 202.833 136.827 202.853 136.847 202.877C136.866 202.901 136.881 202.928 136.89 202.958C136.899 202.987 136.902 203.018 136.899 203.048C136.897 203.079 136.888 203.108 136.873 203.135C136.858 203.162 136.839 203.186 136.815 203.205C136.791 203.224 136.763 203.238 136.734 203.246L135.924 203.504L140.676 207.332L142.188 206.33C142.658 202.993 142.108 199.593 140.61 196.574H138.684L135.684 203.084Z"
		fill="#263238"
	/>
  <path
		d="M138.672 196.4C138.651 196.428 138.624 196.45 138.592 196.466C138.561 196.482 138.527 196.49 138.492 196.49C138.437 196.49 138.384 196.471 138.342 196.436L138.144 196.28L134.958 203.198C134.952 203.234 134.952 203.27 134.958 203.306L135.708 203.072L138.708 196.562H140.634C140.526 196.352 140.418 196.154 140.304 195.962H138.504L138.654 196.082C138.676 196.101 138.695 196.125 138.708 196.152C138.721 196.179 138.729 196.208 138.73 196.237C138.732 196.267 138.728 196.297 138.718 196.325C138.708 196.352 138.692 196.378 138.672 196.4Z"
		fill="#263238"
	/>
  <path
		d="M142.2 206.456C142.197 206.414 142.197 206.372 142.2 206.33L140.688 207.332L135.936 203.504L135.24 203.72L140.352 207.842L140.454 207.608C140.481 207.552 140.529 207.51 140.587 207.488C140.645 207.467 140.709 207.469 140.766 207.494C140.794 207.507 140.819 207.525 140.84 207.548C140.861 207.571 140.877 207.597 140.888 207.626C140.899 207.655 140.903 207.686 140.902 207.717C140.901 207.748 140.893 207.778 140.88 207.806L140.808 207.968H140.838L142.074 207.146C142.104 206.912 142.14 206.684 142.2 206.456Z"
		fill="#263238"
	/>
  <path
		d="M136.89 202.958C136.881 202.928 136.866 202.901 136.847 202.877C136.827 202.853 136.803 202.833 136.776 202.819C136.748 202.804 136.718 202.795 136.687 202.792C136.657 202.789 136.626 202.793 136.596 202.802L135.684 203.084L134.934 203.318L130.08 204.83L129.384 205.046L128.568 205.298C128.509 205.317 128.46 205.359 128.432 205.414C128.404 205.469 128.399 205.533 128.418 205.592C128.431 205.641 128.46 205.683 128.5 205.714C128.541 205.744 128.59 205.76 128.64 205.76H128.706L129.618 205.478L135.924 203.516L136.734 203.258C136.765 203.25 136.794 203.236 136.819 203.216C136.843 203.196 136.864 203.171 136.879 203.143C136.893 203.114 136.902 203.083 136.904 203.052C136.906 203.02 136.901 202.988 136.89 202.958Z"
		fill="#263238"
	/>
  <path
		d="M129.672 216.488L130.2 217.4C130.216 217.426 130.227 217.455 130.231 217.486C130.235 217.516 130.234 217.547 130.226 217.577C130.218 217.607 130.204 217.634 130.185 217.659C130.166 217.683 130.143 217.703 130.116 217.718C130.082 217.741 130.043 217.753 130.002 217.754C129.961 217.755 129.921 217.744 129.885 217.724C129.849 217.704 129.819 217.675 129.798 217.64L129.348 216.872L126.438 223.178L127.26 223.838C130.895 222.672 134.163 220.577 136.74 217.76L136.5 216.506L129.672 216.488Z"
		fill="#263238"
	/>
  <path
		d="M136.752 216.416C136.721 216.424 136.687 216.424 136.656 216.416C136.601 216.39 136.558 216.343 136.537 216.286C136.516 216.229 136.517 216.166 136.542 216.11L136.638 215.9H129.312L129.672 216.5H136.5L136.74 217.754C136.914 217.568 137.082 217.376 137.25 217.184L137.052 216.134L136.974 216.308C136.95 216.344 136.917 216.373 136.878 216.392C136.839 216.411 136.795 216.419 136.752 216.416Z"
		fill="#263238"
	/>
  <path
		d="M129.348 216.854L129 216.2L125.868 222.998H126.096C126.158 222.998 126.218 223.023 126.261 223.067C126.305 223.11 126.33 223.17 126.33 223.232C126.331 223.263 126.325 223.294 126.314 223.323C126.302 223.351 126.285 223.377 126.263 223.399C126.241 223.421 126.215 223.438 126.187 223.45C126.158 223.461 126.127 223.467 126.096 223.466H125.904L126.582 224.012C126.816 223.946 127.056 223.88 127.29 223.802L126.468 223.142L129.348 216.854Z"
		fill="#263238"
	/>
  <path
		d="M126.792 211.61L126.336 210.842C126.32 210.816 126.299 210.793 126.275 210.774C126.25 210.756 126.222 210.743 126.192 210.735C126.162 210.728 126.131 210.726 126.101 210.73C126.071 210.735 126.041 210.745 126.015 210.761C125.989 210.777 125.966 210.798 125.947 210.822C125.929 210.847 125.916 210.875 125.908 210.905C125.9 210.935 125.899 210.966 125.903 210.996C125.908 211.026 125.918 211.056 125.934 211.082L126.462 211.976L129 216.2L129.378 216.836L129.828 217.604C129.849 217.639 129.879 217.668 129.915 217.688C129.951 217.708 129.991 217.719 130.032 217.718C130.073 217.717 130.112 217.705 130.146 217.682C130.186 217.648 130.213 217.602 130.223 217.551C130.233 217.499 130.225 217.446 130.2 217.4L129.672 216.506L129.312 215.906L127.164 212.27L126.792 211.61Z"
		fill="#263238"
	/>
  <path
		d="M115.638 216.866L114.954 217.652C114.933 217.678 114.907 217.699 114.877 217.714C114.846 217.728 114.813 217.736 114.78 217.736C114.722 217.736 114.667 217.715 114.624 217.676C114.58 217.632 114.556 217.573 114.556 217.511C114.556 217.449 114.58 217.39 114.624 217.346L115.368 216.488H108.6L108 217.766C109.853 220.594 112.599 222.72 115.8 223.808L116.856 223.106L115.638 216.866Z"
		fill="#263238"
	/>
  <path
		d="M116.922 223.25C116.922 223.188 116.947 223.128 116.991 223.085C117.034 223.041 117.094 223.016 117.156 223.016H117.42L116.142 216.278L115.638 216.878L116.838 223.118L115.782 223.82L116.52 224.06L117.342 223.514H117.162C117.128 223.516 117.094 223.511 117.062 223.498C117.03 223.485 117.001 223.465 116.978 223.44C116.955 223.415 116.938 223.384 116.928 223.351C116.919 223.319 116.917 223.284 116.922 223.25Z"
		fill="#263238"
	/>
  <path
		d="M115.344 216.488L115.866 215.888H108.564L108.612 216.152C108.623 216.212 108.609 216.275 108.574 216.325C108.539 216.376 108.486 216.41 108.426 216.422H108.384C108.329 216.423 108.276 216.404 108.234 216.368C108.192 216.333 108.165 216.284 108.156 216.23L108.12 216.044L107.616 217.13C107.742 217.34 107.868 217.55 108 217.73L108.6 216.452L115.344 216.488Z"
		fill="#263238"
	/>
  <path
		d="M119.85 212L120.594 211.136C120.633 211.089 120.652 211.028 120.647 210.967C120.642 210.906 120.614 210.849 120.567 210.809C120.521 210.769 120.461 210.749 120.399 210.753C120.338 210.757 120.281 210.784 120.24 210.83L119.562 211.622L119.052 212.222L115.866 215.924L115.344 216.524L114.6 217.346C114.556 217.39 114.532 217.449 114.532 217.511C114.532 217.573 114.556 217.632 114.6 217.676C114.643 217.715 114.698 217.736 114.756 217.736C114.789 217.736 114.822 217.728 114.853 217.714C114.883 217.699 114.909 217.678 114.93 217.652L115.614 216.866L116.118 216.266L119.31 212.564L119.85 212Z"
		fill="#263238"
	/>
  <path
		d="M140.754 207.494C140.697 207.469 140.633 207.467 140.575 207.488C140.517 207.51 140.469 207.552 140.442 207.608L140.34 207.842L136.638 215.876L136.542 216.086C136.517 216.142 136.516 216.205 136.537 216.262C136.558 216.319 136.601 216.366 136.656 216.392C136.687 216.4 136.721 216.4 136.752 216.392C136.797 216.391 136.841 216.378 136.879 216.353C136.917 216.329 136.948 216.295 136.968 216.254L137.046 216.08L140.796 207.944L140.868 207.782C140.887 207.728 140.886 207.669 140.865 207.616C140.844 207.563 140.805 207.52 140.754 207.494Z"
		fill="#263238"
	/>
  <path
		d="M131.808 190.886C131.789 190.91 131.774 190.937 131.766 190.966C131.757 190.995 131.754 191.025 131.758 191.056C131.761 191.086 131.771 191.115 131.785 191.142C131.8 191.168 131.82 191.191 131.844 191.21L132.036 191.366L138.144 196.292L138.342 196.448C138.384 196.483 138.437 196.502 138.492 196.502C138.527 196.502 138.561 196.494 138.592 196.478C138.624 196.462 138.651 196.44 138.672 196.412C138.692 196.389 138.707 196.362 138.716 196.333C138.725 196.303 138.728 196.273 138.725 196.242C138.721 196.212 138.712 196.182 138.697 196.156C138.681 196.129 138.661 196.106 138.636 196.088L132.138 190.88C132.093 190.837 132.034 190.814 131.972 190.815C131.91 190.816 131.851 190.842 131.808 190.886Z"
		fill="#263238"
	/>
  <path
		d="M126.3 223.25C126.3 223.188 126.275 223.128 126.231 223.085C126.188 223.041 126.128 223.016 126.066 223.016H117.156C117.094 223.016 117.034 223.041 116.991 223.085C116.947 223.128 116.922 223.188 116.922 223.25C116.921 223.281 116.927 223.312 116.938 223.341C116.95 223.369 116.967 223.395 116.989 223.417C117.011 223.439 117.037 223.456 117.065 223.468C117.094 223.479 117.125 223.485 117.156 223.484H126.066C126.097 223.485 126.128 223.479 126.157 223.468C126.185 223.456 126.211 223.439 126.233 223.417C126.255 223.395 126.272 223.369 126.284 223.341C126.295 223.312 126.301 223.281 126.3 223.25Z"
		fill="#263238"
	/>
  <path
		d="M108.384 216.416H108.426C108.486 216.404 108.539 216.37 108.574 216.319C108.609 216.269 108.623 216.206 108.612 216.146L108.564 215.882L107.052 207.896L107.01 207.668C106.997 207.607 106.961 207.554 106.909 207.519C106.858 207.485 106.795 207.471 106.734 207.482C106.704 207.488 106.675 207.499 106.649 207.517C106.623 207.534 106.601 207.556 106.583 207.581C106.566 207.607 106.554 207.636 106.548 207.666C106.542 207.696 106.542 207.728 106.548 207.758L106.584 207.944L108.12 216.044L108.156 216.23C108.166 216.283 108.194 216.331 108.236 216.365C108.278 216.399 108.33 216.417 108.384 216.416Z"
		fill="#263238"
	/>
  <path
		d="M111.852 196.4C111.873 196.431 111.902 196.457 111.935 196.475C111.969 196.492 112.006 196.502 112.044 196.502C112.091 196.503 112.138 196.488 112.176 196.46L112.368 196.334L119.892 191.36L120.096 191.228C120.145 191.193 120.178 191.14 120.189 191.08C120.2 191.021 120.188 190.96 120.154 190.909C120.121 190.859 120.069 190.823 120.01 190.81C119.951 190.797 119.89 190.807 119.838 190.838L119.682 190.94L112.074 195.968L111.918 196.076C111.866 196.11 111.83 196.164 111.818 196.224C111.806 196.285 111.818 196.348 111.852 196.4Z"
		fill="#263238"
	/>
</svg>
