<svg width="354" height="230" viewBox="0 0 354 230" fill="none" xmlns="http://www.w3.org/2000/svg">
  <path
		d="M98.7477 5.4V134.6C98.7477 136.067 98.2143 137.333 97.1477 138.4C96.081 139.467 94.8143 140 93.3477 140H54.1477C52.681 140 51.4143 139.467 50.3477 138.4C49.281 137.333 48.7477 136.067 48.7477 134.6V53.8L26.3477 71C25.281 71.8 24.081 72.2 22.7477 72.2C21.5477 72.2 20.2143 71.2667 18.7477 69.4L1.14766 46.6C0.614323 45.6667 0.347656 44.8 0.347656 44C0.347656 41.6 1.21432 39.8667 2.94766 38.8L51.1477 1.40001C52.481 0.466669 53.9477 0 55.5477 0H93.3477C94.8143 0 96.081 0.533334 97.1477 1.6C98.2143 2.66667 98.7477 3.93334 98.7477 5.4Z"
		fill="#D9D9D9"
	/>
  <path d="M354 202.44H54V202.59H354V202.44Z" fill="#EBEBEB" />
  <path d="M323.94 212.094H304.068V212.244H323.94V212.094Z" fill="#EBEBEB" />
  <path d="M252.732 213.726H247.518V213.876H252.732V213.726Z" fill="#EBEBEB" />
  <path d="M303.468 206.526H291.954V206.676H303.468V206.526Z" fill="#EBEBEB" />
  <path d="M111.39 207.534H85.476V207.684H111.39V207.534Z" fill="#EBEBEB" />
  <path d="M120.534 207.534H116.736V207.684H120.534V207.534Z" fill="#EBEBEB" />
  <path d="M189.09 210.066H132.882V210.216H189.09V210.066Z" fill="#EBEBEB" />
  <path
		d="M196.2 175.68H80.346C79.4384 175.678 78.5685 175.317 77.9273 174.674C77.2861 174.032 76.926 173.162 76.926 172.254V9.39601C76.9339 8.49362 77.2975 7.6308 77.9379 6.99494C78.5782 6.35908 79.4436 6.00156 80.346 6.00001H196.2C197.109 6.00001 197.98 6.36096 198.623 7.00346C199.265 7.64596 199.626 8.51738 199.626 9.42601V172.254C199.626 173.163 199.265 174.034 198.623 174.677C197.98 175.319 197.109 175.68 196.2 175.68ZM80.346 6.12001C79.4782 6.1216 78.6465 6.46745 78.0334 7.08165C77.4203 7.69584 77.076 8.5282 77.076 9.39601V172.254C77.076 173.122 77.4203 173.954 78.0334 174.568C78.6465 175.183 79.4782 175.528 80.346 175.53H196.2C197.068 175.528 197.901 175.183 198.515 174.569C199.129 173.955 199.474 173.122 199.476 172.254V9.39601C199.474 8.52765 199.129 7.6953 198.515 7.08128C197.901 6.46725 197.068 6.1216 196.2 6.12001H80.346Z"
		fill="#EBEBEB"
	/>
  <path
		d="M325.986 175.68H210.126C209.218 175.678 208.347 175.317 207.705 174.675C207.063 174.033 206.702 173.162 206.7 172.254V9.39601C206.709 8.49308 207.074 7.63026 207.716 6.99457C208.357 6.35887 209.223 6.00154 210.126 6.00001H325.986C326.887 6.00313 327.751 6.36136 328.39 6.99705C329.029 7.63273 329.392 8.49466 329.4 9.39601V172.254C329.4 173.161 329.041 174.03 328.401 174.672C327.761 175.314 326.893 175.677 325.986 175.68ZM210.126 6.12001C209.258 6.1216 208.425 6.46725 207.811 7.08128C207.197 7.6953 206.852 8.52765 206.85 9.39601V172.254C206.852 173.122 207.197 173.955 207.811 174.569C208.425 175.183 209.258 175.528 210.126 175.53H325.986C326.854 175.528 327.687 175.183 328.301 174.569C328.915 173.955 329.26 173.122 329.262 172.254V9.39601C329.26 8.52765 328.915 7.6953 328.301 7.08128C327.687 6.46725 326.854 6.1216 325.986 6.12001H210.126Z"
		fill="#EBEBEB"
	/>
  <path d="M185.46 202.44H196.632V125.718H185.46V202.44Z" fill="#E6E6E6" />
  <path d="M189.396 202.44L185.46 202.44V187.86H193.518L189.396 202.44Z" fill="#F0F0F0" />
  <path d="M303.618 202.44H314.79V125.718H303.618V202.44Z" fill="#E6E6E6" />
  <path d="M185.466 198.456H307.05V125.712H185.466V198.456Z" fill="#F0F0F0" />
  <path d="M303.114 202.44H307.05V187.86H298.992L303.114 202.44Z" fill="#F0F0F0" />
  <path d="M266.964 131.736V191.91H303.006V131.736H266.964Z" fill="#E6E6E6" />
  <path
		d="M281.4 133.854H288.528C291.55 133.898 294.478 132.808 296.736 130.8H273.228C275.478 132.799 278.391 133.887 281.4 133.854Z"
		fill="#F0F0F0"
	/>
  <path d="M228.234 131.736V191.91H264.276V131.736H228.234Z" fill="#E6E6E6" />
  <path
		d="M242.322 133.854H249.456C252.471 133.892 255.392 132.803 257.646 130.8H234.138C236.39 132.803 239.309 133.892 242.322 133.854Z"
		fill="#F0F0F0"
	/>
  <path d="M189.504 131.742V191.916H225.546V131.742H189.504Z" fill="#E6E6E6" />
  <path
		d="M203.598 133.854H210.726C213.741 133.892 216.662 132.803 218.916 130.8H195.408C197.662 132.804 200.583 133.893 203.598 133.854Z"
		fill="#F0F0F0"
	/>
  <path d="M98.76 202.44H174.996V31.068H98.76V202.44Z" fill="#F0F0F0" />
  <path d="M98.76 202.44H173.388V31.068H98.76V202.44Z" fill="#F5F5F5" />
  <path d="M168.84 198.552V34.956H103.308V198.552H168.84Z" fill="#F0F0F0" />
  <path
		d="M162.402 65.4C162.403 63.0538 161.941 60.7305 161.044 58.5627C160.147 56.3949 158.831 54.4251 157.172 52.7658C155.514 51.1065 153.544 49.7903 151.377 48.8922C149.209 47.9942 146.886 47.532 144.54 47.532H127.62C122.881 47.532 118.336 49.4145 114.985 52.7654C111.635 56.1163 109.752 60.6611 109.752 65.4H162.402Z"
		fill="#FAFAFA"
	/>
  <path d="M162.408 188.382V149.298H109.758V188.382H162.408Z" fill="#F5F5F5" />
  <path d="M162.408 76.398H139.182V144.252H162.408V76.398Z" fill="#F5F5F5" />
  <path d="M132.978 76.398H109.752V144.252H132.978V76.398Z" fill="#F5F5F5" />
  <path
		d="M118.2 110.022H108.66C108.269 110.022 107.893 109.866 107.616 109.59C107.34 109.313 107.184 108.937 107.184 108.546C107.186 108.155 107.342 107.781 107.618 107.504C107.895 107.228 108.269 107.072 108.66 107.07H118.2C118.591 107.072 118.965 107.228 119.242 107.504C119.518 107.781 119.674 108.155 119.676 108.546C119.676 108.937 119.52 109.313 119.244 109.59C118.967 109.866 118.591 110.022 118.2 110.022Z"
		fill="#E0E0E0"
	/>
  <path d="M104.49 198.552V34.956H103.308V198.552H104.49Z" fill="#F0F0F0" />
  <path d="M223.224 106.908H304.068V22.398H223.224V106.908Z" fill="#E6E6E6" />
  <path d="M221.184 106.908H302.028V22.398H221.184V106.908Z" fill="#F5F5F5" />
  <path d="M216.462 111.3H304.068V106.908H216.462V111.3Z" fill="#E6E6E6" />
  <path d="M214.164 111.3H297.258V106.908H214.164V111.3Z" fill="#F5F5F5" />
  <path d="M298.374 102.966V26.346H224.844V102.966H298.374Z" fill="white" />
  <path d="M263.646 102.966V26.346H259.572V102.966H263.646Z" fill="#F5F5F5" />
  <path d="M226.38 102.966V26.346H224.838V102.966H226.38Z" fill="#E6E6E6" />
  <path d="M265.188 102.966V26.346L263.646 26.346V102.966L265.188 102.966Z" fill="#E6E6E6" />
  <path
		d="M234.09 108.918C232.602 93.51 231.564 68.514 232.368 60.15C232.384 60.0075 232.43 59.8699 232.503 59.746C232.575 59.6221 232.672 59.5145 232.788 59.43C232.943 59.3164 233.127 59.2487 233.318 59.2344C233.51 59.2202 233.702 59.26 233.872 59.3494C234.042 59.4389 234.184 59.5743 234.28 59.7402C234.377 59.9061 234.426 60.0959 234.42 60.288C234.282 64.434 234.12 74.79 235.02 92.652C235.458 101.544 236.088 107.652 235.656 108.918H234.09Z"
		fill="#E6E6E6"
	/>
  <path
		d="M228.546 73.41C224.31 68.706 215.664 65.364 206.856 65.382C203.394 65.382 217.38 70.848 223.194 76.878C227.712 81.558 232.794 89.436 234.54 93.81C233.4 84.6 232.8 78.108 228.546 73.41Z"
		fill="#E6E6E6"
	/>
  <path
		d="M236.94 74.844C240.456 69.948 248.568 66.18 257.34 65.754C260.784 65.586 247.668 71.754 242.772 78.03C238.974 82.92 235.074 91.026 234 95.466C233.754 86.244 233.4 79.74 236.94 74.844Z"
		fill="#E6E6E6"
	/>
  <path
		d="M228.36 56.244C224.76 52.26 217.452 49.428 209.988 49.446C207.06 49.446 218.898 54.078 223.824 59.178C227.652 63.144 231.966 69.816 233.424 73.518C232.482 65.73 231.942 60.222 228.36 56.244Z"
		fill="#E6E6E6"
	/>
  <path
		d="M235.464 62.13C238.464 57.984 245.31 54.792 252.75 54.432C255.666 54.294 244.56 59.496 240.414 64.83C237.198 68.97 233.892 75.834 232.986 79.596C232.8 71.784 232.488 66.276 235.464 62.13Z"
		fill="#E6E6E6"
	/>
  <path
		d="M234.684 125.718C232.45 125.719 230.3 124.864 228.676 123.33C227.051 121.796 226.075 119.699 225.948 117.468L225.174 104.076H244.2L243.426 117.468C243.299 119.7 242.322 121.798 240.696 123.332C239.071 124.866 236.919 125.72 234.684 125.718Z"
		fill="#E6E6E6"
	/>
  <path d="M245.43 107.118H223.944L223.326 101.544H246.042L245.43 107.118Z" fill="#E6E6E6" />
  <path
		d="M204 229.536C268.249 229.536 320.334 226.495 320.334 222.744C320.334 218.993 268.249 215.952 204 215.952C139.751 215.952 87.666 218.993 87.666 222.744C87.666 226.495 139.751 229.536 204 229.536Z"
		fill="#F5F5F5"
	/>
  <path
		d="M85.38 41.118C85.3832 40.1197 85.7812 39.1631 86.4871 38.4571C87.1931 37.7512 88.1496 37.3532 89.148 37.35H257.28C258.278 37.3532 259.235 37.7512 259.941 38.4571C260.647 39.1631 261.045 40.1197 261.048 41.118V53.244H85.38V41.118Z"
		fill="#263238"
	/>
  <path
		d="M115.842 48.474C115.213 48.474 114.598 48.2875 114.075 47.9381C113.552 47.5887 113.145 47.092 112.904 46.5109C112.663 45.9299 112.6 45.2905 112.723 44.6736C112.846 44.0568 113.149 43.4901 113.593 43.0454C114.038 42.6007 114.605 42.2978 115.222 42.1751C115.838 42.0524 116.478 42.1154 117.059 42.3561C117.64 42.5968 118.137 43.0043 118.486 43.5273C118.835 44.0502 119.022 44.6651 119.022 45.294C119.022 46.1374 118.687 46.9462 118.091 47.5426C117.494 48.139 116.685 48.474 115.842 48.474ZM115.842 42.78C115.345 42.78 114.859 42.9275 114.445 43.2037C114.032 43.4799 113.71 43.8726 113.519 44.3319C113.329 44.7913 113.279 45.2968 113.376 45.7845C113.473 46.2721 113.713 46.7201 114.064 47.0717C114.416 47.4233 114.864 47.6627 115.352 47.7597C115.839 47.8567 116.345 47.8069 116.804 47.6166C117.263 47.4264 117.656 47.1041 117.932 46.6907C118.209 46.2773 118.356 45.7912 118.356 45.294C118.354 44.6277 118.089 43.9892 117.618 43.5181C117.147 43.047 116.508 42.7816 115.842 42.78Z"
		fill="#F0F0F0"
	/>
  <path
		d="M105.744 48.474C105.115 48.4728 104.501 48.2853 103.979 47.9352C103.457 47.585 103.05 47.088 102.81 46.5068C102.571 45.9256 102.508 45.2864 102.632 44.67C102.755 44.0535 103.059 43.4874 103.504 43.0433C103.948 42.5992 104.515 42.2969 105.132 42.1747C105.749 42.0525 106.388 42.1158 106.968 42.3567C107.549 42.5975 108.045 43.0051 108.394 43.5279C108.744 44.0507 108.93 44.6653 108.93 45.294C108.93 45.7121 108.848 46.1261 108.687 46.5123C108.527 46.8985 108.292 47.2494 107.996 47.5447C107.701 47.8401 107.349 48.0742 106.963 48.2337C106.576 48.3931 106.162 48.4748 105.744 48.474ZM105.744 42.78C105.247 42.7812 104.762 42.9296 104.349 43.2066C103.936 43.4836 103.615 43.8766 103.426 44.3361C103.236 44.7956 103.187 45.3009 103.285 45.7881C103.383 46.2754 103.623 46.7228 103.974 47.0738C104.326 47.4248 104.774 47.6636 105.262 47.7601C105.749 47.8567 106.254 47.8065 106.713 47.6161C107.172 47.4256 107.565 47.1034 107.841 46.6901C108.117 46.2768 108.264 45.791 108.264 45.294C108.262 44.6267 107.996 43.9873 107.524 43.516C107.051 43.0447 106.411 42.78 105.744 42.78Z"
		fill="#F0F0F0"
	/>
  <path
		d="M95.652 48.474C95.0233 48.4728 94.4091 48.2853 93.8869 47.9352C93.3648 47.585 92.9581 47.088 92.7183 46.5068C92.4786 45.9256 92.4165 45.2864 92.5398 44.67C92.6632 44.0535 92.9666 43.4874 93.4115 43.0433C93.8565 42.5992 94.4231 42.2969 95.0398 42.1747C95.6565 42.0525 96.2956 42.1158 96.8763 42.3567C97.457 42.5975 97.9533 43.0051 98.3025 43.5279C98.6516 44.0507 98.838 44.6653 98.838 45.294C98.838 45.7121 98.7556 46.1261 98.5954 46.5123C98.4352 46.8985 98.2004 47.2494 97.9045 47.5447C97.6086 47.8401 97.2573 48.0742 96.8708 48.2337C96.4843 48.3931 96.0701 48.4748 95.652 48.474ZM95.652 42.78C95.1548 42.78 94.6687 42.9275 94.2553 43.2037C93.8419 43.4799 93.5196 43.8726 93.3294 44.3319C93.1391 44.7913 93.0893 45.2968 93.1863 45.7845C93.2833 46.2721 93.5228 46.7201 93.8743 47.0717C94.2259 47.4233 94.6739 47.6627 95.1615 47.7597C95.6492 47.8567 96.1547 47.8069 96.6141 47.6166C97.0734 47.4264 97.4661 47.1041 97.7423 46.6907C98.0186 46.2773 98.166 45.7912 98.166 45.294C98.1644 44.6277 97.899 43.9892 97.4279 43.5181C96.9568 43.047 96.3183 42.7816 95.652 42.78Z"
		fill="#F0F0F0"
	/>
  <path
		d="M257.28 168.942H89.148C88.1496 168.939 87.1931 168.541 86.4871 167.835C85.7812 167.129 85.3832 166.172 85.38 165.174V53.244H261.048V165.174C261.045 166.172 260.647 167.129 259.941 167.835C259.235 168.541 258.278 168.939 257.28 168.942Z"
		fill="#5293C7"
	/>
  <path d="M259.98 56.466H86.448V155.664H259.98V56.466Z" fill="white" />
  <path
		d="M163.338 64.968H97.236C95.9735 64.968 94.95 65.9915 94.95 67.254V76.08C94.95 77.3425 95.9735 78.366 97.236 78.366H163.338C164.601 78.366 165.624 77.3425 165.624 76.08V67.254C165.624 65.9915 164.601 64.968 163.338 64.968Z"
		fill="#5293C7"
	/>
  <path
		d="M249.192 65.568C249.639 65.568 250.068 65.7456 250.384 66.0618C250.7 66.378 250.878 66.8069 250.878 67.254V76.08C250.878 76.5272 250.7 76.956 250.384 77.2722C250.068 77.5884 249.639 77.766 249.192 77.766H183.09C182.643 77.766 182.214 77.5884 181.898 77.2722C181.582 76.956 181.404 76.5272 181.404 76.08V67.254C181.404 66.8069 181.582 66.378 181.898 66.0618C182.214 65.7456 182.643 65.568 183.09 65.568H249.192ZM249.192 64.968H183.09C182.484 64.9696 181.904 65.2109 181.475 65.6393C181.047 66.0677 180.806 66.6482 180.804 67.254V76.08C180.804 76.6863 181.045 77.2677 181.474 77.6965C181.902 78.1252 182.484 78.366 183.09 78.366H249.192C249.798 78.366 250.38 78.1252 250.808 77.6965C251.237 77.2677 251.478 76.6863 251.478 76.08V67.254C251.476 66.6482 251.235 66.0677 250.807 65.6393C250.378 65.2109 249.798 64.9696 249.192 64.968Z"
		fill="#5293C7"
	/>
  <path
		d="M106.698 84.366C108.903 84.366 111.058 85.0198 112.892 86.2448C114.725 87.4697 116.154 89.2108 116.997 91.2479C117.841 93.2849 118.062 95.5264 117.632 97.6889C117.202 99.8514 116.14 101.838 114.581 103.397C113.022 104.956 111.035 106.018 108.873 106.448C106.71 106.878 104.469 106.657 102.432 105.813C100.395 104.97 98.6537 103.541 97.4288 101.708C96.2038 99.8742 95.55 97.7189 95.55 95.514C95.5532 92.5583 96.7287 89.7247 98.8187 87.6347C100.909 85.5447 103.742 84.3692 106.698 84.366ZM106.698 83.766C104.374 83.766 102.103 84.455 100.171 85.7459C98.2392 87.0368 96.7334 88.8716 95.8443 91.0182C94.9551 93.1649 94.7224 95.527 95.1757 97.8059C95.629 100.085 96.7479 102.178 98.3909 103.821C100.034 105.464 102.127 106.583 104.406 107.036C106.685 107.49 109.047 107.257 111.194 106.368C113.34 105.479 115.175 103.973 116.466 102.041C117.757 100.109 118.446 97.8375 118.446 95.514C118.446 92.3982 117.208 89.4101 115.005 87.2069C112.802 85.0037 109.814 83.766 106.698 83.766Z"
		fill="#5293C7"
	/>
  <path
		d="M115.2 100.134C114.368 101.669 113.136 102.95 111.636 103.843C110.136 104.736 108.423 105.207 106.677 105.207C104.931 105.207 103.218 104.736 101.718 103.843C100.218 102.95 98.9864 101.669 98.154 100.134C100.677 98.4477 103.643 97.5476 106.677 97.5476C109.711 97.5476 112.677 98.4477 115.2 100.134Z"
		fill="#5293C7"
	/>
  <path
		d="M106.698 96.516C109.084 96.516 111.018 94.5819 111.018 92.196C111.018 89.8101 109.084 87.876 106.698 87.876C104.312 87.876 102.378 89.8101 102.378 92.196C102.378 94.5819 104.312 96.516 106.698 96.516Z"
		fill="#5293C7"
	/>
  <path
		d="M245.436 101.556H131.088C129.486 101.556 127.949 100.919 126.816 99.7863C125.683 98.6533 125.046 97.1165 125.046 95.514C125.046 94.7208 125.202 93.9355 125.506 93.2027C125.81 92.47 126.255 91.8044 126.816 91.2438C127.377 90.6832 128.043 90.2387 128.776 89.9358C129.509 89.6328 130.295 89.4772 131.088 89.478H245.436C246.229 89.4772 247.015 89.6328 247.748 89.9358C248.481 90.2387 249.147 90.6832 249.708 91.2438C250.269 91.8044 250.714 92.47 251.018 93.2027C251.322 93.9355 251.478 94.7208 251.478 95.514C251.478 97.1165 250.841 98.6533 249.708 99.7863C248.575 100.919 247.038 101.556 245.436 101.556Z"
		fill="#5293C7"
	/>
  <path
		d="M106.698 116.4C108.903 116.4 111.058 117.054 112.892 118.279C114.725 119.504 116.154 121.245 116.997 123.282C117.841 125.319 118.062 127.56 117.632 129.723C117.202 131.885 116.14 133.872 114.581 135.431C113.022 136.99 111.035 138.052 108.873 138.482C106.71 138.912 104.469 138.691 102.432 137.847C100.395 137.004 98.6537 135.575 97.4288 133.742C96.2038 131.908 95.55 129.753 95.55 127.548C95.5516 124.592 96.7266 121.757 98.8169 119.667C100.907 117.577 103.742 116.402 106.698 116.4ZM106.698 115.8C104.374 115.8 102.103 116.489 100.171 117.78C98.2392 119.071 96.7334 120.906 95.8443 123.052C94.9551 125.199 94.7224 127.561 95.1757 129.84C95.629 132.119 96.7479 134.212 98.3909 135.855C100.034 137.498 102.127 138.617 104.406 139.07C106.685 139.524 109.047 139.291 111.194 138.402C113.34 137.513 115.175 136.007 116.466 134.075C117.757 132.143 118.446 129.872 118.446 127.548C118.446 124.432 117.208 121.444 115.005 119.241C112.802 117.038 109.814 115.8 106.698 115.8Z"
		fill="#5293C7"
	/>
  <path
		d="M115.2 132.132C114.368 133.667 113.136 134.948 111.636 135.841C110.136 136.734 108.423 137.205 106.677 137.205C104.931 137.205 103.218 136.734 101.718 135.841C100.218 134.948 98.9864 133.667 98.154 132.132C100.678 130.449 103.644 129.552 106.677 129.552C109.71 129.552 112.676 130.449 115.2 132.132Z"
		fill="#5293C7"
	/>
  <path
		d="M106.698 128.52C109.084 128.52 111.018 126.586 111.018 124.2C111.018 121.814 109.084 119.88 106.698 119.88C104.312 119.88 102.378 121.814 102.378 124.2C102.378 126.586 104.312 128.52 106.698 128.52Z"
		fill="#5293C7"
	/>
  <path
		d="M131.088 121.476H245.436C247.038 121.476 248.575 122.113 249.708 123.246C250.841 124.379 251.478 125.916 251.478 127.518C251.478 129.12 250.841 130.657 249.708 131.79C248.575 132.923 247.038 133.56 245.436 133.56H131.088C129.486 133.56 127.949 132.923 126.816 131.79C125.683 130.657 125.046 129.12 125.046 127.518C125.046 125.917 125.682 124.382 126.814 123.25C127.946 122.118 129.481 121.482 131.082 121.482L131.088 121.476Z"
		fill="#5293C7"
	/>
  <path
		d="M217.272 133.38C217.271 137.05 217.631 140.712 218.346 144.312C214.991 146.305 212.21 149.134 210.276 152.524C208.342 155.914 207.32 159.747 207.312 163.65C207.3 165.432 207.501 167.208 207.912 168.942H257.28C258.278 168.939 259.235 168.541 259.941 167.835C260.647 167.129 261.045 166.172 261.048 165.174L261.048 78.774C248.634 81.5504 237.535 88.4707 229.579 98.3958C221.622 108.321 217.282 120.659 217.272 133.38Z"
		fill="black"
	/>
  <path
		d="M308.48 171.034C327.972 151.541 327.972 119.938 308.48 100.445C288.987 80.9523 257.383 80.9523 237.891 100.445C218.398 119.938 218.398 151.541 237.891 171.034C257.383 190.527 288.987 190.527 308.48 171.034Z"
		fill="#5293C7"
	/>
  <path
		d="M305.594 167.854C323.365 150.083 323.365 121.272 305.594 103.501C287.824 85.7307 259.012 85.7307 241.242 103.501C223.471 121.272 223.471 150.083 241.242 167.854C259.012 185.624 287.824 185.624 305.594 167.854Z"
		fill="white"
	/>
  <path
		d="M258.066 105.15L255.162 108.87C255.162 108.87 252.612 110.802 251.646 112.47C250.518 113.586 249.486 114.732 248.466 115.938C247.297 117.317 246.207 118.761 245.202 120.264C244.101 121.871 243.191 123.601 242.49 125.418C242.046 126.568 241.801 127.786 241.764 129.018C241.748 129.89 241.903 130.756 242.22 131.568C242.618 132.563 243.274 133.433 244.122 134.088L244.758 134.568L245.712 134.748C247.595 135.106 249.507 135.295 251.424 135.312L252.18 135.246L251.4 127.638C250.758 127.638 249.378 127.764 248.748 127.752C248.748 127.632 248.796 127.512 248.826 127.392C249.206 125.944 249.729 124.537 250.386 123.192C251.058 121.734 251.832 120.276 252.636 118.824C253.344 117.54 254.106 116.25 254.844 114.99L258.444 112.722L260.55 108.984L258.066 105.15ZM248.7 128.85C248.695 128.792 248.695 128.734 248.7 128.676C248.725 128.719 248.744 128.765 248.754 128.814C248.772 128.958 248.73 128.964 248.7 128.85Z"
		fill="#7F3E3B"
	/>
  <path
		d="M278.514 113.19C278.604 112.728 275.448 111.144 273.276 112.434C271.398 113.55 271.158 115.074 271.842 116.892C271.842 117.018 271.89 117.144 271.908 117.27C271.95 117.564 271.986 117.87 272.004 118.146C272.142 120.06 271.638 121.842 269.484 122.856C269.484 122.976 269.19 123.102 269.094 123.186C268.296 123.888 267.788 124.861 267.666 125.916C267.666 126.696 268.404 127.314 269.262 128.058L270.462 128.868L272.106 128.712C277.152 127.23 279.51 122.622 279.402 122.28C278.106 120.144 278.124 116.4 278.514 113.19Z"
		fill="#7F3E3B"
	/>
  <path
		d="M289.422 124.122L288.51 123.966C287.31 123.774 281.958 122.562 279.372 122.334C278.772 123.612 276.804 126.732 271.758 128.214L270.51 128.508L269.31 127.908C268.939 127.641 268.63 127.296 268.405 126.899C268.179 126.501 268.042 126.06 268.002 125.604C268.043 125.135 268.18 124.68 268.405 124.267C268.63 123.854 268.938 123.492 269.31 123.204C269.354 123.166 269.388 123.119 269.412 123.066C269.412 122.922 269.412 122.826 269.412 122.814C269.034 122.862 264.246 123.588 263.844 123.654C259.33 124.488 254.899 125.719 250.602 127.332L250.65 127.764L251.52 135.318L251.844 138.18C251.844 138.18 254.244 137.91 257.394 137.358C256.536 145.002 256.368 156.078 258.99 170.316L287.028 169.794C287.1 168.594 286.968 166.11 286.842 162.714L286.68 157.47C286.584 152.838 286.602 147.27 287.016 141.318C287.082 140.376 287.16 139.428 287.244 138.468C290.88 142.398 294.522 146.154 294.522 146.154L296.244 144.498C298.446 143.436 300.18 141.534 301.692 139.248L303.714 137.298C303.714 137.298 294.342 124.95 289.422 124.122Z"
		fill="#5293C7"
	/>
  <path
		d="M284.496 135.384C284.633 136.633 285.032 137.839 285.666 138.924L287.046 141.288C287.112 140.346 287.19 139.398 287.274 138.438C286.326 137.4 285.378 136.374 284.496 135.384Z"
		fill="black"
	/>
  <path
		d="M287.28 138.444C287.196 139.404 287.118 140.352 287.052 141.294C287.112 140.352 287.196 139.398 287.28 138.444Z"
		fill="black"
	/>
  <path
		d="M271.842 116.892C271.842 117.018 271.884 117.144 271.908 117.27C271.908 117.144 271.866 117.018 271.842 116.892Z"
		fill="#7F3E3B"
	/>
  <path
		d="M272.004 118.146C272.004 117.858 271.95 117.546 271.908 117.27C271.95 117.564 271.986 117.858 272.004 118.146Z"
		fill="black"
	/>
  <path
		d="M275.736 115.47C275.616 115.554 275.502 115.644 275.376 115.728C274.326 116.431 273.104 116.834 271.842 116.892C271.842 117.018 271.884 117.144 271.908 117.27C271.95 117.564 271.986 117.87 272.004 118.146C272.004 118.146 272.004 118.182 272.004 118.2C273.56 117.82 274.903 116.838 275.736 115.47Z"
		fill="#7F3E3B"
	/>
  <path
		d="M282.474 123.246C282.421 122.999 282.299 122.773 282.123 122.592C281.947 122.412 281.723 122.285 281.478 122.226L280.23 121.926C280.074 121.889 279.91 121.904 279.763 121.968C279.616 122.031 279.494 122.141 279.414 122.28L279.372 122.334C278.772 123.612 276.804 126.732 271.758 128.214L271.368 128.304L270.51 128.508L269.31 127.908C268.939 127.641 268.63 127.296 268.405 126.899C268.179 126.501 268.042 126.06 268.002 125.604C268.043 125.135 268.18 124.68 268.405 124.267C268.63 123.854 268.938 123.492 269.31 123.204C269.376 123.137 269.434 123.062 269.484 122.982C269.538 122.844 269.526 122.778 269.43 122.718C268.104 121.764 265.14 123.234 265.02 123.486C264.894 123.612 264.768 123.744 264.642 123.894C264.272 124.33 263.996 124.837 263.831 125.384C263.665 125.931 263.615 126.506 263.682 127.074C263.807 128.029 264.145 128.943 264.672 129.749C265.199 130.555 265.9 131.232 266.724 131.73C266.751 131.739 266.781 131.739 266.808 131.73C266.839 131.739 266.873 131.739 266.904 131.73C266.93 131.712 266.951 131.687 266.966 131.659C266.98 131.631 266.988 131.6 266.988 131.568C266.991 130.859 267.203 130.166 267.598 129.577C267.993 128.987 268.553 128.528 269.208 128.256L270.258 128.82C265.746 147.336 268.806 169.53 268.89 170.13H269.238C269.238 169.902 266.058 147.516 270.606 128.898L271.704 128.634C272.982 130.194 272.376 132.51 272.37 132.534C272.362 132.566 272.362 132.6 272.372 132.632C272.381 132.663 272.399 132.692 272.424 132.714C272.458 132.742 272.5 132.757 272.544 132.756C272.566 132.762 272.588 132.762 272.61 132.756C272.85 132.648 278.526 130.164 280.512 127.794C281.45 126.661 282.111 125.326 282.444 123.894C282.51 123.684 282.52 123.461 282.474 123.246Z"
		fill="white"
	/>
  <path
		d="M275.736 115.47C275.616 115.554 275.502 115.644 275.376 115.728C274.326 116.431 273.104 116.834 271.842 116.892C271.842 117.018 271.884 117.144 271.908 117.27C271.95 117.564 271.986 117.87 272.004 118.146C272.004 118.146 272.004 118.182 272.004 118.2C273.56 117.82 274.903 116.838 275.736 115.47Z"
		fill="black"
	/>
  <path
		d="M268.326 102.222C270.672 99.222 269.184 97.422 268.188 97.59C267.246 98.034 266.352 99.288 265.89 102.096C265.779 102.758 265.763 103.433 265.842 104.1C266.808 104.052 268.326 102.222 268.326 102.222Z"
		fill="#263238"
	/>
  <path
		d="M278.16 108.84C284.658 97.41 271.824 96.078 269.208 98.64C268.326 99.4587 267.582 100.415 267.006 101.472L266.46 102.546C266.234 103.054 266.034 103.572 265.86 104.1C265.2 105.997 264.855 107.989 264.84 109.998C264.836 110.915 265.015 111.824 265.368 112.671C265.721 113.517 266.24 114.284 266.895 114.927C267.549 115.57 268.326 116.075 269.178 116.412C270.031 116.75 270.943 116.913 271.86 116.892C273.122 116.834 274.344 116.431 275.394 115.728C275.52 115.644 275.634 115.554 275.754 115.47C276.611 114.859 277.342 114.089 277.908 113.202C279.24 111.048 278.892 109.962 278.16 108.84Z"
		fill="#7F3E3B"
	/>
  <path
		d="M266.13 102.192C266.09 102.244 266.073 102.31 266.081 102.375C266.088 102.439 266.121 102.499 266.172 102.54C266.217 102.575 266.271 102.594 266.328 102.594C266.376 102.593 266.422 102.576 266.46 102.546C266.484 102.535 266.505 102.519 266.52 102.498C266.712 102.245 266.959 102.039 267.243 101.896C267.527 101.754 267.84 101.679 268.158 101.676C268.224 101.679 268.288 101.657 268.338 101.613C268.387 101.569 268.417 101.508 268.422 101.442C268.424 101.41 268.421 101.377 268.41 101.346C268.4 101.316 268.384 101.287 268.363 101.263C268.342 101.238 268.316 101.218 268.287 101.203C268.258 101.189 268.226 101.18 268.194 101.178C267.776 101.175 267.364 101.276 266.994 101.472C266.659 101.65 266.365 101.895 266.13 102.192Z"
		fill="#263238"
	/>
  <path
		d="M272.622 109.38C272.599 109.358 272.567 109.345 272.535 109.345C272.503 109.345 272.471 109.358 272.448 109.38C272.037 109.724 271.554 109.97 271.034 110.099C270.514 110.228 269.972 110.236 269.448 110.124C269.416 110.119 269.384 110.126 269.357 110.143C269.33 110.161 269.311 110.189 269.304 110.22C269.298 110.252 269.305 110.286 269.323 110.314C269.341 110.341 269.368 110.362 269.4 110.37C269.686 110.427 269.978 110.453 270.27 110.448C271.129 110.44 271.957 110.125 272.604 109.56C272.617 109.55 272.628 109.537 272.636 109.522C272.644 109.507 272.649 109.491 272.651 109.474C272.653 109.457 272.651 109.44 272.646 109.424C272.641 109.408 272.633 109.393 272.622 109.38Z"
		fill="#263238"
	/>
  <path
		d="M269.4 105.096C268.606 106.259 267.659 107.31 266.586 108.222C267.186 109.05 268.482 108.99 268.482 108.99L269.4 105.096Z"
		fill="#630F0F"
	/>
  <path
		d="M267.276 105.24C267.546 105.294 267.876 105.006 267.942 104.592C268.008 104.178 267.9 103.806 267.63 103.752C267.36 103.698 267.06 103.986 266.964 104.4C266.868 104.814 267 105.186 267.276 105.24Z"
		fill="#263238"
	/>
  <path
		d="M271.968 106.2C272.238 106.254 272.532 105.966 272.634 105.552C272.736 105.138 272.586 104.766 272.316 104.712C272.046 104.658 271.746 104.946 271.65 105.36C271.554 105.774 271.692 106.122 271.968 106.2Z"
		fill="#263238"
	/>
  <path
		d="M282.27 99.66C284.808 97.488 279.024 93.06 279.024 93.06C279.024 93.06 279.672 94.644 278.328 95.082C276.984 95.52 267.528 91.992 267.666 95.994C267.692 96.558 267.872 97.104 268.188 97.572C268.469 97.9747 268.814 98.3292 269.208 98.622C271.404 100.29 275.4 100.8 277.56 100.8C277.217 101.636 276.977 102.51 276.846 103.404C276.681 104.346 276.712 105.312 276.938 106.242C277.164 107.171 277.58 108.043 278.16 108.804C279.36 110.892 280.962 110.832 282.33 109.242C284.526 107.166 286.644 102.96 282.27 99.66Z"
		fill="#263238"
	/>
  <path
		d="M281.166 108.042C280.17 107.634 279.048 108.114 278.166 108.84C277.682 109.225 277.263 109.685 276.924 110.202C276.078 111.528 276.378 113.07 277.896 113.202H278.52C279.715 113.08 280.832 112.551 281.682 111.702C281.997 111.398 282.224 111.015 282.339 110.592C282.454 110.17 282.453 109.724 282.336 109.302C282.25 109.017 282.1 108.755 281.897 108.536C281.695 108.318 281.444 108.149 281.166 108.042Z"
		fill="#7F3E3B"
	/>
  <path
		d="M259.02 170.286C259.02 170.286 258.858 171.69 258.606 174.048C267.795 177.155 277.735 177.248 286.98 174.312C287.04 171.462 287.082 169.758 287.082 169.758L269.262 170.094H268.914L259.02 170.286Z"
		fill="#263238"
	/>
  <path
		d="M305.4 146.124C305.349 145.613 305.232 145.111 305.052 144.63C304.966 144.391 304.864 144.159 304.746 143.934L304.572 143.61L304.476 143.442C303.618 141.966 302.676 140.568 301.716 139.242L296.268 144.492C296.988 145.392 297.69 146.292 298.338 147.216C298.218 147.523 298.063 147.815 297.876 148.086C297.004 149.298 295.997 150.407 294.876 151.392C292.526 153.508 290.065 155.497 287.502 157.35L286.668 157.458L283.32 157.914L280.026 160.14L282.192 164.544L284.916 163.152C285.567 163.062 286.208 162.912 286.83 162.702C287.793 162.451 288.631 161.858 289.188 161.034C290.782 160.403 292.342 159.69 293.862 158.898C295.496 158.055 297.079 157.115 298.602 156.084C299.374 155.556 300.138 154.978 300.894 154.35C301.697 153.691 302.44 152.962 303.114 152.172C303.977 151.196 304.642 150.061 305.07 148.83C305.372 147.962 305.485 147.039 305.4 146.124ZM298.386 147.072C298.386 147.042 298.386 147.006 298.386 146.982C298.386 146.838 298.44 146.784 298.44 146.868C298.437 146.938 298.423 147.007 298.398 147.072H298.386Z"
		fill="#7F3E3B"
	/>
  <path
		d="M246.05 163.863C247.508 154.884 241.411 146.424 232.432 144.967C223.453 143.509 214.993 149.606 213.536 158.585C212.079 167.563 218.176 176.024 227.154 177.481C236.133 178.938 244.593 172.841 246.05 163.863Z"
		fill="#263238"
	/>
  <path
		d="M238.836 159.672H231.324V152.16C231.324 151.751 231.162 151.359 230.872 151.07C230.583 150.78 230.191 150.618 229.782 150.618C229.373 150.618 228.981 150.78 228.692 151.07C228.402 151.359 228.24 151.751 228.24 152.16V159.672H220.728C220.319 159.672 219.927 159.834 219.638 160.124C219.348 160.413 219.186 160.805 219.186 161.214C219.186 161.623 219.348 162.015 219.638 162.304C219.927 162.594 220.319 162.756 220.728 162.756H228.24V170.268C228.24 170.471 228.28 170.671 228.357 170.858C228.435 171.045 228.548 171.215 228.692 171.358C228.835 171.502 229.005 171.615 229.192 171.693C229.379 171.77 229.579 171.81 229.782 171.81C229.984 171.81 230.185 171.77 230.372 171.693C230.559 171.615 230.729 171.502 230.872 171.358C231.016 171.215 231.129 171.045 231.207 170.858C231.284 170.671 231.324 170.471 231.324 170.268V162.756H238.836C239.245 162.756 239.637 162.594 239.926 162.304C240.216 162.015 240.378 161.623 240.378 161.214C240.378 160.805 240.216 160.413 239.926 160.124C239.637 159.834 239.245 159.672 238.836 159.672Z"
		fill="white"
	/>
  <path
		d="M272.862 103.056C273.163 103.117 273.445 103.251 273.684 103.445C273.922 103.639 274.11 103.889 274.23 104.172C274.25 104.215 274.283 104.252 274.323 104.277C274.363 104.303 274.41 104.316 274.458 104.316C274.491 104.324 274.527 104.324 274.56 104.316C274.59 104.302 274.617 104.283 274.639 104.259C274.661 104.235 274.678 104.207 274.689 104.176C274.7 104.145 274.705 104.113 274.704 104.08C274.702 104.048 274.694 104.016 274.68 103.986C274.524 103.628 274.283 103.314 273.977 103.07C273.672 102.826 273.312 102.661 272.928 102.588C272.863 102.579 272.797 102.597 272.744 102.637C272.692 102.677 272.658 102.736 272.649 102.801C272.64 102.866 272.658 102.932 272.698 102.985C272.738 103.037 272.797 103.071 272.862 103.08V103.056Z"
		fill="#263238"
	/>
</svg>
