<svg width="237" height="125" viewBox="0 0 237 125" fill="none" xmlns="http://www.w3.org/2000/svg">
    <path
        d="M52.0374 1.35556L2.58886 28.5749C0.991984 29.454 0 31.1323 0 32.9552V89.4608C0 91.9604 1.33294 94.2704 3.49713 95.5213L50.9809 122.966C53.1569 124.224 55.84 124.218 58.0109 122.952L105.027 95.5259C107.178 94.2714 108.5 91.9691 108.5 89.4794V35.0529C108.5 32.5459 107.159 30.2303 104.985 28.9822L56.9379 1.39952C55.424 0.530471 53.5666 0.513808 52.0374 1.35556Z"
        fill="#144A75" />
    <path
        d="M66.4725 52.8564L56.1059 58.5759C54.6968 59.3533 52.9239 58.802 52.2042 57.3626C51.5391 56.0323 52.0162 54.4141 53.2967 53.6574L62.0233 48.5008V43.0008L45.5233 53.0008C43.6856 53.9197 41.5233 52.5833 41.5233 50.5287V38.2239C41.5233 37.1569 42.09 36.1702 43.0117 35.6326L63.9705 23.4066C64.9264 22.849 66.1118 22.8629 67.0544 23.443L77.0956 29.6222C77.9828 30.1682 78.5233 31.1354 78.5233 32.1772V56.2953C78.5233 57.3528 77.9665 58.3322 77.0578 58.8731L57.5233 70.5008V92.209C57.5233 93.6286 56.7709 94.9419 55.5462 95.6598L45.5761 101.504C44.1946 102.314 42.4162 101.786 41.7 100.354C41.0407 99.0355 41.5304 97.4315 42.8139 96.7061L52.0233 91.5008V69.172C52.0233 68.133 52.5609 67.168 53.4443 66.6212L73.0233 54.5008V33.5008L65.0233 29.0008L47.0233 39.5008V45.5008L63.6702 35.3277C64.5119 34.8133 65.5593 34.7688 66.4417 35.21C67.411 35.6946 68.0233 36.6854 68.0233 37.7691V50.2297C68.0233 51.3223 67.4292 52.3286 66.4725 52.8564Z"
        fill="#BDDCE3" />
    <path
        d="M43.2035 23.0673L32.4924 29.3443C31.2673 30.0622 30.5146 31.3759 30.5148 32.7959L30.5228 92.5045C30.5231 94.4361 32.088 96.0024 34.0196 96.0044C34.6772 96.0051 35.3217 95.8205 35.8793 95.4717L44.2052 90.2644C45.9586 89.1677 47.0236 87.2455 47.0236 85.1774L47.0236 62.4982C47.0237 60.8415 45.6804 59.4986 44.0237 59.4991C42.3668 59.4996 41.0241 60.8432 41.0246 62.5001L41.0318 85.5001L36.0328 88.5016L36.0155 33.5016L45.5989 27.6715C46.7096 26.9958 47.1696 25.6165 46.6867 24.4093L46.6684 24.3635C46.5721 24.1227 46.4445 23.8957 46.2889 23.6882C45.5679 22.7269 44.2402 22.4597 43.2035 23.0673Z"
        fill="#BDDCE3" />
    <path
        d="M127.523 74C127.429 73.7131 127.305 73.456 127.152 73.2287C127.001 72.9986 126.821 72.8026 126.611 72.6406C126.403 72.4787 126.168 72.3551 125.903 72.2699C125.639 72.1847 125.349 72.142 125.034 72.142C124.517 72.142 124.047 72.2756 123.624 72.5426C123.2 72.8097 122.864 73.2031 122.614 73.723C122.364 74.2429 122.239 74.8807 122.239 75.6364C122.239 76.392 122.365 77.0298 122.618 77.5497C122.871 78.0696 123.213 78.4631 123.645 78.7301C124.077 78.9972 124.563 79.1307 125.102 79.1307C125.602 79.1307 126.043 79.0241 126.423 78.8111C126.807 78.5952 127.105 78.2912 127.318 77.8991C127.534 77.5043 127.642 77.0398 127.642 76.5057L127.966 76.5739H125.341V75.6364H128.665V76.5739C128.665 77.2926 128.511 77.9176 128.205 78.4489C127.901 78.9801 127.48 79.392 126.943 79.6847C126.409 79.9744 125.795 80.1193 125.102 80.1193C124.33 80.1193 123.651 79.9375 123.065 79.5739C122.483 79.2102 122.028 78.6932 121.702 78.0227C121.378 77.3523 121.216 76.5568 121.216 75.6364C121.216 74.946 121.308 74.3253 121.493 73.7741C121.68 73.2202 121.945 72.7486 122.286 72.3594C122.626 71.9702 123.03 71.6719 123.496 71.4645C123.962 71.2571 124.474 71.1534 125.034 71.1534C125.494 71.1534 125.923 71.223 126.321 71.3622C126.722 71.4986 127.078 71.6932 127.391 71.946C127.706 72.196 127.969 72.4957 128.179 72.8452C128.389 73.1918 128.534 73.5767 128.614 74H127.523ZM133.083 80.1364C132.452 80.1364 131.908 79.9972 131.451 79.7188C130.996 79.4375 130.645 79.0455 130.398 78.5426C130.154 78.0369 130.032 77.4489 130.032 76.7784C130.032 76.108 130.154 75.517 130.398 75.0057C130.645 74.4915 130.989 74.0909 131.429 73.804C131.873 73.5142 132.39 73.3693 132.98 73.3693C133.321 73.3693 133.658 73.4261 133.99 73.5398C134.323 73.6534 134.625 73.8381 134.898 74.0938C135.171 74.3466 135.388 74.6818 135.55 75.0994C135.712 75.517 135.793 76.0312 135.793 76.642V77.0682H130.748V76.1989H134.77C134.77 75.8295 134.696 75.5 134.549 75.2102C134.404 74.9205 134.196 74.6918 133.926 74.5241C133.659 74.3565 133.344 74.2727 132.98 74.2727C132.58 74.2727 132.233 74.3722 131.941 74.571C131.651 74.767 131.428 75.0227 131.272 75.3381C131.115 75.6534 131.037 75.9915 131.037 76.3523V76.9318C131.037 77.4261 131.123 77.8452 131.293 78.1889C131.466 78.5298 131.706 78.7898 132.013 78.9688C132.32 79.1449 132.676 79.233 133.083 79.233C133.347 79.233 133.586 79.196 133.799 79.1222C134.015 79.0455 134.201 78.9318 134.357 78.7812C134.513 78.6278 134.634 78.4375 134.719 78.2102L135.691 78.483C135.588 78.8125 135.417 79.1023 135.175 79.3523C134.934 79.5994 134.635 79.7926 134.28 79.9318C133.925 80.0682 133.526 80.1364 133.083 80.1364ZM140.169 73.4545V74.3068H136.777V73.4545H140.169ZM137.766 71.8864H138.772V78.125C138.772 78.4091 138.813 78.6222 138.895 78.7642C138.98 78.9034 139.088 78.9972 139.219 79.0455C139.353 79.0909 139.493 79.1136 139.641 79.1136C139.752 79.1136 139.843 79.108 139.914 79.0966C139.985 79.0824 140.042 79.071 140.084 79.0625L140.289 79.9659C140.221 79.9915 140.125 80.017 140.003 80.0426C139.881 80.071 139.726 80.0852 139.539 80.0852C139.255 80.0852 138.976 80.0241 138.703 79.902C138.434 79.7798 138.209 79.5938 138.03 79.3438C137.854 79.0938 137.766 78.7784 137.766 78.3977V71.8864ZM146.25 71.2727V80H145.194V71.2727H146.25ZM149.239 76.0625V80H148.233V73.4545H149.205V74.4773H149.29C149.443 74.1449 149.676 73.8778 149.989 73.6761C150.301 73.4716 150.705 73.3693 151.199 73.3693C151.642 73.3693 152.03 73.4602 152.362 73.642C152.695 73.821 152.953 74.0938 153.138 74.4602C153.322 74.8239 153.415 75.2841 153.415 75.8409V80H152.409V75.9091C152.409 75.3949 152.276 74.9943 152.009 74.7074C151.741 74.4176 151.375 74.2727 150.909 74.2727C150.588 74.2727 150.301 74.3423 150.048 74.4815C149.798 74.6207 149.601 74.8239 149.456 75.0909C149.311 75.358 149.239 75.6818 149.239 76.0625ZM158.287 72.2102V71.2727H164.832V72.2102H162.088V80H161.031V72.2102H158.287ZM167.332 76.0625V80H166.327V71.2727H167.332V74.4773H167.418C167.571 74.1392 167.801 73.8707 168.108 73.6719C168.418 73.4702 168.83 73.3693 169.344 73.3693C169.79 73.3693 170.18 73.4588 170.516 73.6378C170.851 73.8139 171.111 74.0852 171.295 74.4517C171.483 74.8153 171.577 75.2784 171.577 75.8409V80H170.571V75.9091C170.571 75.3892 170.436 74.9872 170.166 74.7031C169.899 74.4162 169.528 74.2727 169.054 74.2727C168.724 74.2727 168.429 74.3423 168.168 74.4815C167.909 74.6207 167.705 74.8239 167.554 75.0909C167.406 75.358 167.332 75.6818 167.332 76.0625ZM176.161 80.1364C175.53 80.1364 174.986 79.9972 174.529 79.7188C174.074 79.4375 173.723 79.0455 173.476 78.5426C173.232 78.0369 173.11 77.4489 173.11 76.7784C173.11 76.108 173.232 75.517 173.476 75.0057C173.723 74.4915 174.067 74.0909 174.507 73.804C174.951 73.5142 175.468 73.3693 176.059 73.3693C176.4 73.3693 176.736 73.4261 177.069 73.5398C177.401 73.6534 177.703 73.8381 177.976 74.0938C178.249 74.3466 178.466 74.6818 178.628 75.0994C178.79 75.517 178.871 76.0312 178.871 76.642V77.0682H173.826V76.1989H177.848C177.848 75.8295 177.775 75.5 177.627 75.2102C177.482 74.9205 177.275 74.6918 177.005 74.5241C176.738 74.3565 176.422 74.2727 176.059 74.2727C175.658 74.2727 175.311 74.3722 175.019 74.571C174.729 74.767 174.506 75.0227 174.35 75.3381C174.194 75.6534 174.115 75.9915 174.115 76.3523V76.9318C174.115 77.4261 174.201 77.8452 174.371 78.1889C174.544 78.5298 174.784 78.7898 175.091 78.9688C175.398 79.1449 175.755 79.233 176.161 79.233C176.425 79.233 176.664 79.196 176.877 79.1222C177.093 79.0455 177.279 78.9318 177.435 78.7812C177.591 78.6278 177.712 78.4375 177.797 78.2102L178.769 78.483C178.667 78.8125 178.495 79.1023 178.253 79.3523C178.012 79.5994 177.713 79.7926 177.358 79.9318C177.003 80.0682 176.604 80.1364 176.161 80.1364ZM189.878 74C189.784 73.7131 189.661 73.456 189.507 73.2287C189.357 72.9986 189.176 72.8026 188.966 72.6406C188.759 72.4787 188.523 72.3551 188.259 72.2699C187.995 72.1847 187.705 72.142 187.39 72.142C186.873 72.142 186.402 72.2756 185.979 72.5426C185.556 72.8097 185.219 73.2031 184.969 73.723C184.719 74.2429 184.594 74.8807 184.594 75.6364C184.594 76.392 184.721 77.0298 184.973 77.5497C185.226 78.0696 185.569 78.4631 186 78.7301C186.432 78.9972 186.918 79.1307 187.458 79.1307C187.958 79.1307 188.398 79.0241 188.779 78.8111C189.162 78.5952 189.461 78.2912 189.674 77.8991C189.89 77.5043 189.998 77.0398 189.998 76.5057L190.321 76.5739H187.696V75.6364H191.02V76.5739C191.02 77.2926 190.867 77.9176 190.56 78.4489C190.256 78.9801 189.836 79.392 189.299 79.6847C188.765 79.9744 188.151 80.1193 187.458 80.1193C186.685 80.1193 186.006 79.9375 185.421 79.5739C184.838 79.2102 184.384 78.6932 184.057 78.0227C183.733 77.3523 183.571 76.5568 183.571 75.6364C183.571 74.946 183.664 74.3253 183.848 73.7741C184.036 73.2202 184.3 72.7486 184.641 72.3594C184.982 71.9702 185.385 71.6719 185.851 71.4645C186.317 71.2571 186.83 71.1534 187.39 71.1534C187.85 71.1534 188.279 71.223 188.676 71.3622C189.077 71.4986 189.434 71.6932 189.746 71.946C190.061 72.196 190.324 72.4957 190.534 72.8452C190.745 73.1918 190.89 73.5767 190.969 74H189.878ZM194.62 80.1534C194.205 80.1534 193.829 80.0753 193.491 79.919C193.153 79.7599 192.884 79.5312 192.685 79.233C192.487 78.9318 192.387 78.5682 192.387 78.142C192.387 77.767 192.461 77.4631 192.609 77.2301C192.756 76.9943 192.954 76.8097 193.201 76.6761C193.448 76.5426 193.721 76.4432 194.019 76.3778C194.32 76.3097 194.623 76.2557 194.927 76.2159C195.325 76.1648 195.647 76.1264 195.894 76.1009C196.144 76.0724 196.326 76.0256 196.44 75.9602C196.556 75.8949 196.614 75.7812 196.614 75.6193V75.5852C196.614 75.1648 196.499 74.8381 196.269 74.6051C196.042 74.3722 195.697 74.2557 195.234 74.2557C194.754 74.2557 194.377 74.3608 194.104 74.571C193.832 74.7812 193.64 75.0057 193.529 75.2443L192.575 74.9034C192.745 74.5057 192.972 74.196 193.256 73.9744C193.543 73.75 193.856 73.5937 194.194 73.5057C194.535 73.4148 194.87 73.3693 195.2 73.3693C195.41 73.3693 195.651 73.3949 195.924 73.446C196.2 73.4943 196.465 73.5952 196.721 73.7486C196.979 73.902 197.194 74.1335 197.364 74.4432C197.535 74.7528 197.62 75.1676 197.62 75.6875V80H196.614V79.1136H196.563C196.495 79.2557 196.381 79.4077 196.222 79.5696C196.063 79.7315 195.852 79.8693 195.587 79.983C195.323 80.0966 195.001 80.1534 194.62 80.1534ZM194.773 79.25C195.171 79.25 195.506 79.1719 195.779 79.0156C196.055 78.8594 196.262 78.6577 196.401 78.4105C196.543 78.1634 196.614 77.9034 196.614 77.6307V76.7102C196.572 76.7614 196.478 76.8082 196.333 76.8509C196.191 76.8906 196.026 76.9261 195.839 76.9574C195.654 76.9858 195.474 77.0114 195.298 77.0341C195.124 77.054 194.984 77.071 194.876 77.0852C194.614 77.1193 194.37 77.1747 194.143 77.2514C193.918 77.3253 193.737 77.4375 193.597 77.5881C193.461 77.7358 193.393 77.9375 193.393 78.1932C193.393 78.5426 193.522 78.8068 193.781 78.9858C194.042 79.1619 194.373 79.25 194.773 79.25ZM199.456 80V73.4545H200.427V74.4773H200.512C200.649 74.1278 200.869 73.8565 201.173 73.6634C201.477 73.4673 201.842 73.3693 202.268 73.3693C202.7 73.3693 203.059 73.4673 203.346 73.6634C203.636 73.8565 203.862 74.1278 204.024 74.4773H204.092C204.26 74.1392 204.511 73.8707 204.846 73.6719C205.181 73.4702 205.583 73.3693 206.052 73.3693C206.637 73.3693 207.116 73.5526 207.488 73.919C207.86 74.2827 208.047 74.8494 208.047 75.6193V80H207.041V75.6193C207.041 75.1364 206.909 74.7912 206.645 74.5838C206.38 74.3764 206.069 74.2727 205.711 74.2727C205.251 74.2727 204.895 74.4119 204.642 74.6903C204.389 74.9659 204.262 75.3153 204.262 75.7386V80H203.24V75.517C203.24 75.1449 203.119 74.8452 202.877 74.6179C202.636 74.3878 202.325 74.2727 201.944 74.2727C201.683 74.2727 201.439 74.3423 201.211 74.4815C200.987 74.6207 200.805 74.8139 200.666 75.0611C200.529 75.3054 200.461 75.5881 200.461 75.9091V80H199.456ZM212.63 80.1364C211.999 80.1364 211.455 79.9972 210.998 79.7188C210.543 79.4375 210.192 79.0455 209.945 78.5426C209.701 78.0369 209.578 77.4489 209.578 76.7784C209.578 76.108 209.701 75.517 209.945 75.0057C210.192 74.4915 210.536 74.0909 210.976 73.804C211.419 73.5142 211.936 73.3693 212.527 73.3693C212.868 73.3693 213.205 73.4261 213.537 73.5398C213.87 73.6534 214.172 73.8381 214.445 74.0938C214.718 74.3466 214.935 74.6818 215.097 75.0994C215.259 75.517 215.34 76.0312 215.34 76.642V77.0682H210.294V76.1989H214.317C214.317 75.8295 214.243 75.5 214.096 75.2102C213.951 74.9205 213.743 74.6918 213.473 74.5241C213.206 74.3565 212.891 74.2727 212.527 74.2727C212.127 74.2727 211.78 74.3722 211.488 74.571C211.198 74.767 210.975 75.0227 210.819 75.3381C210.662 75.6534 210.584 75.9915 210.584 76.3523V76.9318C210.584 77.4261 210.669 77.8452 210.84 78.1889C211.013 78.5298 211.253 78.7898 211.56 78.9688C211.867 79.1449 212.223 79.233 212.63 79.233C212.894 79.233 213.132 79.196 213.346 79.1222C213.561 79.0455 213.748 78.9318 213.904 78.7812C214.06 78.6278 214.181 78.4375 214.266 78.2102L215.238 78.483C215.135 78.8125 214.963 79.1023 214.722 79.3523C214.48 79.5994 214.182 79.7926 213.827 79.9318C213.472 80.0682 213.073 80.1364 212.63 80.1364Z"
        fill="black" />
    <path
        d="M121.989 62V43.6895H128.251C129.79 43.6895 131.116 43.9417 132.231 44.4463C133.354 44.9427 134.217 45.6548 134.819 46.5825C135.421 47.5021 135.722 48.6007 135.722 49.8784C135.722 51.1561 135.421 52.2629 134.819 53.1987C134.217 54.1265 133.358 54.8426 132.243 55.3472C131.136 55.8517 129.818 56.104 128.288 56.104H125.749V62H121.989ZM125.749 52.8081H127.897C129.175 52.8081 130.156 52.5558 130.839 52.0513C131.531 51.5386 131.877 50.8143 131.877 49.8784C131.877 48.9588 131.531 48.2467 130.839 47.7422C130.156 47.2295 129.175 46.9731 127.897 46.9731H125.749V52.8081ZM142.131 43.6895V62H138.371V43.6895H142.131ZM160.979 59.7051C160.124 60.5352 159.111 61.1862 157.939 61.6582C156.767 62.1302 155.493 62.3662 154.118 62.3662C152.727 62.3662 151.445 62.1302 150.273 61.6582C149.101 61.1781 148.08 60.5107 147.209 59.6562C146.346 58.7936 145.675 57.7845 145.195 56.6289C144.715 55.4733 144.475 54.2119 144.475 52.8447C144.475 51.4775 144.715 50.2161 145.195 49.0605C145.675 47.8968 146.346 46.8877 147.209 46.0332C148.08 45.1787 149.101 44.5155 150.273 44.0435C151.445 43.5633 152.727 43.3232 154.118 43.3232C155.485 43.3232 156.751 43.5592 157.915 44.0312C159.086 44.5033 160.1 45.1584 160.954 45.9966L158.33 48.6333C157.817 48.0067 157.19 47.5143 156.45 47.1562C155.717 46.79 154.92 46.6069 154.057 46.6069C153.235 46.6069 152.474 46.7656 151.774 47.083C151.083 47.3923 150.476 47.8317 149.956 48.4014C149.435 48.9629 149.032 49.6221 148.747 50.3789C148.462 51.1357 148.32 51.9536 148.32 52.8325C148.32 53.7277 148.462 54.5537 148.747 55.3105C149.032 56.0674 149.435 56.7306 149.956 57.3003C150.476 57.8618 151.083 58.3013 151.774 58.6187C152.474 58.9279 153.235 59.0825 154.057 59.0825C154.92 59.0825 155.717 58.9035 156.45 58.5454C157.182 58.1792 157.805 57.6828 158.317 57.0562L160.979 59.7051ZM167.058 62H163.298V43.6895H167.058V52.6982C167.424 52.1611 167.774 51.6647 168.107 51.209C168.441 50.7533 168.726 50.3789 168.962 50.0859L174.04 43.6895H178.471L171.757 52.1367L179.765 62H174.895L169.353 55.1519L167.058 58.0449V62ZM180.485 60.0225L182.268 57.1538C182.829 57.6095 183.37 57.9839 183.891 58.2769C184.42 58.5617 184.941 58.7733 185.454 58.9116C185.966 59.0418 186.491 59.1069 187.028 59.1069C187.663 59.1069 188.212 59.0174 188.676 58.8384C189.14 58.6593 189.498 58.403 189.75 58.0693C190.011 57.7357 190.141 57.3491 190.141 56.9097C190.141 56.397 189.978 55.9657 189.653 55.6157C189.327 55.2658 188.9 54.9606 188.371 54.7002C187.85 54.4316 187.285 54.1753 186.674 53.9312C186.08 53.687 185.482 53.4225 184.88 53.1377C184.286 52.8447 183.736 52.4989 183.232 52.1001C182.736 51.7013 182.333 51.2171 182.023 50.6475C181.722 50.0697 181.572 49.3698 181.572 48.5479C181.572 47.4736 181.84 46.5459 182.377 45.7646C182.923 44.9834 183.667 44.3812 184.611 43.958C185.555 43.5348 186.634 43.3232 187.846 43.3232C188.701 43.3232 189.588 43.4372 190.507 43.665C191.435 43.8929 192.359 44.2388 193.278 44.7026L191.801 47.7422C191.223 47.3923 190.601 47.1156 189.934 46.9121C189.266 46.7087 188.64 46.6069 188.054 46.6069C187.525 46.6069 187.061 46.6883 186.662 46.8511C186.271 47.0138 185.966 47.2417 185.747 47.5347C185.527 47.8195 185.417 48.1572 185.417 48.5479C185.417 49.0117 185.576 49.4146 185.893 49.7563C186.21 50.09 186.621 50.387 187.126 50.6475C187.639 50.9079 188.188 51.1683 188.774 51.4287C189.376 51.6891 189.982 51.974 190.593 52.2832C191.211 52.5924 191.773 52.9587 192.277 53.3818C192.79 53.7969 193.201 54.2974 193.51 54.8833C193.828 55.4611 193.986 56.1569 193.986 56.9707C193.986 58.0449 193.701 58.9889 193.132 59.8027C192.562 60.6084 191.769 61.2391 190.751 61.6948C189.734 62.1424 188.55 62.3662 187.199 62.3662C185.962 62.3662 184.778 62.1668 183.647 61.7681C182.516 61.3693 181.462 60.7874 180.485 60.0225ZM200.114 43.6895V62H196.354V43.6895H200.114ZM203.093 62V43.6895H209.086C211.3 43.6895 213.216 44.0638 214.836 44.8125C216.455 45.5612 217.709 46.6191 218.596 47.9863C219.483 49.3535 219.926 50.973 219.926 52.8447C219.926 54.7083 219.483 56.3278 218.596 57.7031C217.709 59.0703 216.455 60.1283 214.836 60.877C213.216 61.6257 211.3 62 209.086 62H203.093ZM206.853 58.7163H209.221C210.686 58.7163 211.927 58.4884 212.944 58.0327C213.969 57.5688 214.746 56.9015 215.275 56.0308C215.812 55.1519 216.081 54.0898 216.081 52.8447C216.081 51.5915 215.812 50.5295 215.275 49.6587C214.746 48.7879 213.969 48.1247 212.944 47.6689C211.927 47.2051 210.686 46.9731 209.221 46.9731H206.853V58.7163ZM222.282 62V43.6895H234.099V46.9731H226.042V51.1357H233.598V54.4316H226.042V58.7163H234.221V62H222.282Z"
        fill="black" />
</svg>