<svg width="109" height="125" viewBox="0 0 109 125" fill="none" xmlns="http://www.w3.org/2000/svg">
    <path
        d="M23.0292 106.75C23.9908 107.366 25.0687 107.989 27.2246 109.235C29.2771 110.422 30.3034 111.015 31.2657 111.517C45.8151 119.104 63.1612 119.069 77.6802 111.424C78.6404 110.918 79.6426 110.333 81.6469 109.164C83.6307 108.007 84.6226 107.428 85.5274 106.847C99.2038 98.0599 107.755 83.1726 108.454 66.9316C108.5 65.857 108.5 64.7026 108.5 62.3937C108.5 60.0313 108.5 58.8501 108.452 57.7516C107.733 41.4227 99.0791 26.4759 85.2755 17.7232C84.347 17.1344 83.2454 16.502 81.0423 15.2372L81.0418 15.237L81.0413 15.2367C79.0155 14.0737 78.0025 13.4922 77.1068 13.025C62.8993 5.61527 46.0013 5.46367 31.6632 12.6173C30.7591 13.0684 29.8165 13.5873 27.9311 14.6251L27.931 14.6251C25.9544 15.7132 24.9661 16.2572 24.0658 16.8034C9.76405 25.4798 0.748614 40.7335 0.0443343 57.4466C0 58.4987 0 59.6684 0 62.0079C0 64.5294 0 65.7902 0.0521375 66.931C0.793256 83.147 9.36047 97.994 23.0292 106.75Z"
        fill="#144A75" />
    <path
        d="M66.4725 52.8564L56.1059 58.5759C54.6968 59.3533 52.9239 58.802 52.2042 57.3626C51.5391 56.0323 52.0162 54.4141 53.2967 53.6574L62.0233 48.5008V43.0008L45.5233 53.0008C43.6856 53.9197 41.5233 52.5833 41.5233 50.5287V38.2239C41.5233 37.1569 42.09 36.1702 43.0117 35.6326L63.9705 23.4066C64.9264 22.849 66.1118 22.8629 67.0544 23.443L77.0956 29.6222C77.9828 30.1682 78.5233 31.1354 78.5233 32.1772V56.2953C78.5233 57.3528 77.9665 58.3322 77.0578 58.8731L57.5233 70.5008V92.209C57.5233 93.6286 56.7709 94.9419 55.5462 95.6598L45.5761 101.504C44.1946 102.314 42.4162 101.786 41.7 100.354C41.0407 99.0355 41.5304 97.4315 42.8139 96.7061L52.0233 91.5008V69.172C52.0233 68.133 52.5609 67.168 53.4443 66.6212L73.0233 54.5008V33.5008L65.0233 29.0008L47.0233 39.5008V45.5008L63.6702 35.3277C64.5119 34.8133 65.5593 34.7688 66.4417 35.21C67.411 35.6946 68.0233 36.6854 68.0233 37.7691V50.2297C68.0233 51.3223 67.4292 52.3286 66.4725 52.8564Z"
        fill="#BDDCE3" />
    <path
        d="M43.2035 23.0673L32.4924 29.3443C31.2673 30.0622 30.5146 31.3759 30.5148 32.7959L30.5228 92.5045C30.5231 94.4361 32.088 96.0024 34.0196 96.0044C34.6772 96.0051 35.3217 95.8205 35.8793 95.4717L44.2052 90.2644C45.9586 89.1678 47.0236 87.2455 47.0236 85.1774L47.0236 62.4982C47.0237 60.8415 45.6804 59.4986 44.0237 59.4991C42.3668 59.4997 41.0241 60.8432 41.0246 62.5001L41.0318 85.5001L36.0328 88.5017L36.0155 33.5017L45.5989 27.6715C46.7096 26.9958 47.1696 25.6165 46.6867 24.4093L46.6684 24.3635C46.5721 24.1228 46.4445 23.8957 46.2889 23.6882C45.5679 22.7269 44.2402 22.4597 43.2035 23.0673Z"
        fill="#BDDCE3" />
</svg>