<svg width="109" height="125" viewBox="0 0 109 125" fill="none" xmlns="http://www.w3.org/2000/svg">
    <path
        d="M52.5374 1.35556L3.08886 28.5749C1.49198 29.454 0.5 31.1323 0.5 32.9552V89.4608C0.5 91.9604 1.83294 94.2704 3.99713 95.5213L51.4809 122.966C53.6569 124.224 56.34 124.218 58.5109 122.952L105.527 95.5259C107.678 94.2714 109 91.9691 109 89.4794V35.0529C109 32.5459 107.659 30.2303 105.485 28.9822L57.4379 1.39952C55.924 0.530471 54.0666 0.513808 52.5374 1.35556Z"
        fill="#144A75" />
    <path
        d="M66.9725 52.8564L56.6059 58.5759C55.1968 59.3533 53.4239 58.802 52.7042 57.3626C52.0391 56.0323 52.5162 54.4141 53.7967 53.6574L62.5233 48.5008V43.0008L46.0233 53.0008C44.1856 53.9197 42.0233 52.5833 42.0233 50.5287V38.2239C42.0233 37.1569 42.59 36.1702 43.5117 35.6326L64.4705 23.4066C65.4264 22.849 66.6118 22.8629 67.5544 23.443L77.5956 29.6222C78.4828 30.1682 79.0233 31.1354 79.0233 32.1772V56.2953C79.0233 57.3528 78.4665 58.3322 77.5578 58.8731L58.0233 70.5008V92.209C58.0233 93.6286 57.2709 94.9419 56.0462 95.6598L46.0761 101.504C44.6946 102.314 42.9162 101.786 42.2 100.354C41.5407 99.0355 42.0304 97.4315 43.3139 96.7061L52.5233 91.5008V69.172C52.5233 68.133 53.0609 67.168 53.9443 66.6212L73.5233 54.5008V33.5008L65.5233 29.0008L47.5233 39.5008V45.5008L64.1702 35.3277C65.0119 34.8133 66.0593 34.7688 66.9417 35.21C67.911 35.6946 68.5233 36.6854 68.5233 37.7691V50.2297C68.5233 51.3223 67.9292 52.3286 66.9725 52.8564Z"
        fill="#BDDCE3" />
    <path
        d="M43.7035 23.0673L32.9924 29.3443C31.7673 30.0622 31.0146 31.3759 31.0148 32.7959L31.0228 92.5045C31.0231 94.4361 32.588 96.0024 34.5196 96.0044C35.1772 96.0051 35.8217 95.8205 36.3793 95.4717L44.7052 90.2644C46.4586 89.1678 47.5236 87.2455 47.5236 85.1774L47.5236 62.4982C47.5237 60.8415 46.1804 59.4986 44.5237 59.4991C42.8668 59.4997 41.5241 60.8432 41.5246 62.5001L41.5318 85.5001L36.5328 88.5017L36.5155 33.5017L46.0989 27.6715C47.2096 26.9958 47.6696 25.6165 47.1867 24.4093L47.1684 24.3635C47.0721 24.1228 46.9445 23.8957 46.7889 23.6882C46.0679 22.7269 44.7402 22.4597 43.7035 23.0673Z"
        fill="#BDDCE3" />
</svg>